%
M48
M72
T01C0.01200
T02C0.03150
T03C0.03200
T04C0.03543
T05C0.04000
T06C0.04331
T07C0.07480
T08C0.12598
%
T01
X44814Y33000
X90714Y134200
X85214Y138600
T02
X91014Y72200
X91014Y82200
X91014Y92200
X36093Y33499
X31368Y30350
X36093Y27200
X31368Y24050
X36093Y20901
T03
X51014Y27200
X61014Y27200
X81014Y37200
X91014Y37200
X111014Y37200
X111014Y47200
X111014Y57200
X111014Y67200
X111014Y77200
X111014Y87200
X111014Y97200
X111014Y107200
X111014Y117200
X111014Y127200
X111014Y137200
X111014Y147200
X111014Y157200
X111014Y167200
X58514Y162200
X46014Y162200
X36014Y162200
X16014Y162200
X16014Y152200
X58514Y122200
X51014Y92200
X31014Y73263
X31014Y63263
X51014Y52200
X106014Y14700
X111014Y7200
X116014Y14700
X141014Y37200
X141014Y47200
X141014Y57200
X141014Y67200
X141014Y77200
X141014Y87200
X141014Y97200
X141014Y107200
X141014Y117200
X141014Y127200
X141014Y137200
X141014Y147200
X141014Y157200
X141014Y167200
X151014Y187200
X166014Y167200
X196014Y167200
X196014Y177200
X191014Y187200
X166014Y127200
X166014Y112200
X166014Y102200
T04
X78888Y7200
X71014Y7200
X63140Y7200
T05
X191014Y14700
X171014Y14700
X151014Y14700
X131014Y14700
X198514Y67200
X198514Y77200
X198514Y87200
X198514Y97200
X198514Y107200
X198514Y117200
X198514Y127200
X198514Y137200
X56014Y182200
X46014Y182200
X36014Y182200
X26014Y182200
X16014Y182200
X11014Y137200
X11014Y127200
X11014Y117200
X11014Y107200
X11014Y97200
X11014Y87200
X11014Y77200
X11014Y67200
T06
X55266Y7200
X86762Y7200
T07
X16014Y41570
X16014Y12830
T08
X191014Y32200
X73514Y97200
X91014Y167200
X181014Y157200
M30
