G75*
%MOIN*%
%OFA0B0*%
%FSLAX25Y25*%
%IPPOS*%
%LPD*%
%AMOC8*
5,1,8,0,0,1.08239X$1,22.5*
%
%ADD10C,0.00000*%
%ADD11C,0.06700*%
%ADD12OC8,0.06700*%
%ADD13OC8,0.05600*%
%ADD14C,0.07800*%
%ADD15R,0.07800X0.07800*%
%ADD16C,0.05550*%
%ADD17C,0.11620*%
%ADD18C,0.05600*%
%ADD19C,0.05943*%
%ADD20C,0.06896*%
D10*
X0006014Y0002200D02*
X0202864Y0002200D01*
X0202864Y0199050D01*
X0006014Y0199050D01*
X0006014Y0002200D01*
D11*
X0091014Y0037200D03*
X0166014Y0102200D03*
D12*
X0166014Y0112200D03*
X0081014Y0037200D03*
D13*
X0061014Y0027200D03*
X0051014Y0027200D03*
X0051014Y0052200D03*
X0031014Y0063263D03*
X0031014Y0073263D03*
X0051014Y0092200D03*
X0058514Y0122200D03*
X0058514Y0162200D03*
X0046014Y0162200D03*
X0036014Y0162200D03*
X0016014Y0162200D03*
X0016014Y0152200D03*
X0151014Y0187200D03*
X0166014Y0167200D03*
X0191014Y0187200D03*
X0196014Y0177200D03*
X0196014Y0167200D03*
X0166014Y0127200D03*
X0116014Y0014700D03*
X0111014Y0007200D03*
X0106014Y0014700D03*
D14*
X0131014Y0014700D03*
X0151014Y0014700D03*
X0171014Y0014700D03*
X0191014Y0014700D03*
X0198514Y0077200D03*
X0198514Y0087200D03*
X0198514Y0097200D03*
X0198514Y0107200D03*
X0198514Y0117200D03*
X0198514Y0127200D03*
X0198514Y0137200D03*
X0091014Y0092200D03*
X0091014Y0082200D03*
X0091014Y0072200D03*
X0011014Y0077200D03*
X0011014Y0087200D03*
X0011014Y0097200D03*
X0011014Y0107200D03*
X0011014Y0117200D03*
X0011014Y0127200D03*
X0011014Y0137200D03*
X0016014Y0182200D03*
X0026014Y0182200D03*
X0036014Y0182200D03*
X0046014Y0182200D03*
X0056014Y0182200D03*
D15*
X0011014Y0067200D03*
X0198514Y0067200D03*
D16*
X0036093Y0033499D03*
X0031368Y0030350D03*
X0036093Y0027200D03*
X0031368Y0024050D03*
X0036093Y0020901D03*
D17*
X0016014Y0012830D03*
X0016014Y0041570D03*
D18*
X0108414Y0037200D02*
X0113614Y0037200D01*
X0113614Y0047200D02*
X0108414Y0047200D01*
X0108414Y0057200D02*
X0113614Y0057200D01*
X0113614Y0067200D02*
X0108414Y0067200D01*
X0108414Y0077200D02*
X0113614Y0077200D01*
X0113614Y0087200D02*
X0108414Y0087200D01*
X0108414Y0097200D02*
X0113614Y0097200D01*
X0113614Y0107200D02*
X0108414Y0107200D01*
X0108414Y0117200D02*
X0113614Y0117200D01*
X0113614Y0127200D02*
X0108414Y0127200D01*
X0108414Y0137200D02*
X0113614Y0137200D01*
X0113614Y0147200D02*
X0108414Y0147200D01*
X0108414Y0157200D02*
X0113614Y0157200D01*
X0113614Y0167200D02*
X0108414Y0167200D01*
X0138414Y0167200D02*
X0143614Y0167200D01*
X0143614Y0157200D02*
X0138414Y0157200D01*
X0138414Y0147200D02*
X0143614Y0147200D01*
X0143614Y0137200D02*
X0138414Y0137200D01*
X0138414Y0127200D02*
X0143614Y0127200D01*
X0143614Y0117200D02*
X0138414Y0117200D01*
X0138414Y0107200D02*
X0143614Y0107200D01*
X0143614Y0097200D02*
X0138414Y0097200D01*
X0138414Y0087200D02*
X0143614Y0087200D01*
X0143614Y0077200D02*
X0138414Y0077200D01*
X0138414Y0067200D02*
X0143614Y0067200D01*
X0143614Y0057200D02*
X0138414Y0057200D01*
X0138414Y0047200D02*
X0143614Y0047200D01*
X0143614Y0037200D02*
X0138414Y0037200D01*
D19*
X0078888Y0007200D03*
X0071014Y0007200D03*
X0063140Y0007200D03*
D20*
X0055266Y0007200D03*
X0086762Y0007200D03*
M02*
