G75*
%MOIN*%
%OFA0B0*%
%FSLAX25Y25*%
%IPPOS*%
%LPD*%
%AMOC8*
5,1,8,0,0,1.08239X$1,22.5*
%
%ADD10C,0.00000*%
%ADD11C,0.06300*%
%ADD12OC8,0.06300*%
%ADD13OC8,0.05200*%
%ADD14C,0.07400*%
%ADD15R,0.07400X0.07400*%
%ADD16C,0.05150*%
%ADD17C,0.11220*%
%ADD18C,0.05200*%
%ADD19C,0.05543*%
%ADD20C,0.06496*%
%ADD21C,0.01600*%
%ADD22C,0.02400*%
%ADD23C,0.01200*%
%ADD24C,0.02400*%
D10*
X0006014Y0002200D02*
X0202864Y0002200D01*
X0202864Y0199050D01*
X0006014Y0199050D01*
X0006014Y0002200D01*
X0067215Y0097200D02*
X0067217Y0097358D01*
X0067223Y0097516D01*
X0067233Y0097674D01*
X0067247Y0097832D01*
X0067265Y0097989D01*
X0067286Y0098146D01*
X0067312Y0098302D01*
X0067342Y0098458D01*
X0067375Y0098613D01*
X0067413Y0098766D01*
X0067454Y0098919D01*
X0067499Y0099071D01*
X0067548Y0099222D01*
X0067601Y0099371D01*
X0067657Y0099519D01*
X0067717Y0099665D01*
X0067781Y0099810D01*
X0067849Y0099953D01*
X0067920Y0100095D01*
X0067994Y0100235D01*
X0068072Y0100372D01*
X0068154Y0100508D01*
X0068238Y0100642D01*
X0068327Y0100773D01*
X0068418Y0100902D01*
X0068513Y0101029D01*
X0068610Y0101154D01*
X0068711Y0101276D01*
X0068815Y0101395D01*
X0068922Y0101512D01*
X0069032Y0101626D01*
X0069145Y0101737D01*
X0069260Y0101846D01*
X0069378Y0101951D01*
X0069499Y0102053D01*
X0069622Y0102153D01*
X0069748Y0102249D01*
X0069876Y0102342D01*
X0070006Y0102432D01*
X0070139Y0102518D01*
X0070274Y0102602D01*
X0070410Y0102681D01*
X0070549Y0102758D01*
X0070690Y0102830D01*
X0070832Y0102900D01*
X0070976Y0102965D01*
X0071122Y0103027D01*
X0071269Y0103085D01*
X0071418Y0103140D01*
X0071568Y0103191D01*
X0071719Y0103238D01*
X0071871Y0103281D01*
X0072024Y0103320D01*
X0072179Y0103356D01*
X0072334Y0103387D01*
X0072490Y0103415D01*
X0072646Y0103439D01*
X0072803Y0103459D01*
X0072961Y0103475D01*
X0073118Y0103487D01*
X0073277Y0103495D01*
X0073435Y0103499D01*
X0073593Y0103499D01*
X0073751Y0103495D01*
X0073910Y0103487D01*
X0074067Y0103475D01*
X0074225Y0103459D01*
X0074382Y0103439D01*
X0074538Y0103415D01*
X0074694Y0103387D01*
X0074849Y0103356D01*
X0075004Y0103320D01*
X0075157Y0103281D01*
X0075309Y0103238D01*
X0075460Y0103191D01*
X0075610Y0103140D01*
X0075759Y0103085D01*
X0075906Y0103027D01*
X0076052Y0102965D01*
X0076196Y0102900D01*
X0076338Y0102830D01*
X0076479Y0102758D01*
X0076618Y0102681D01*
X0076754Y0102602D01*
X0076889Y0102518D01*
X0077022Y0102432D01*
X0077152Y0102342D01*
X0077280Y0102249D01*
X0077406Y0102153D01*
X0077529Y0102053D01*
X0077650Y0101951D01*
X0077768Y0101846D01*
X0077883Y0101737D01*
X0077996Y0101626D01*
X0078106Y0101512D01*
X0078213Y0101395D01*
X0078317Y0101276D01*
X0078418Y0101154D01*
X0078515Y0101029D01*
X0078610Y0100902D01*
X0078701Y0100773D01*
X0078790Y0100642D01*
X0078874Y0100508D01*
X0078956Y0100372D01*
X0079034Y0100235D01*
X0079108Y0100095D01*
X0079179Y0099953D01*
X0079247Y0099810D01*
X0079311Y0099665D01*
X0079371Y0099519D01*
X0079427Y0099371D01*
X0079480Y0099222D01*
X0079529Y0099071D01*
X0079574Y0098919D01*
X0079615Y0098766D01*
X0079653Y0098613D01*
X0079686Y0098458D01*
X0079716Y0098302D01*
X0079742Y0098146D01*
X0079763Y0097989D01*
X0079781Y0097832D01*
X0079795Y0097674D01*
X0079805Y0097516D01*
X0079811Y0097358D01*
X0079813Y0097200D01*
X0079811Y0097042D01*
X0079805Y0096884D01*
X0079795Y0096726D01*
X0079781Y0096568D01*
X0079763Y0096411D01*
X0079742Y0096254D01*
X0079716Y0096098D01*
X0079686Y0095942D01*
X0079653Y0095787D01*
X0079615Y0095634D01*
X0079574Y0095481D01*
X0079529Y0095329D01*
X0079480Y0095178D01*
X0079427Y0095029D01*
X0079371Y0094881D01*
X0079311Y0094735D01*
X0079247Y0094590D01*
X0079179Y0094447D01*
X0079108Y0094305D01*
X0079034Y0094165D01*
X0078956Y0094028D01*
X0078874Y0093892D01*
X0078790Y0093758D01*
X0078701Y0093627D01*
X0078610Y0093498D01*
X0078515Y0093371D01*
X0078418Y0093246D01*
X0078317Y0093124D01*
X0078213Y0093005D01*
X0078106Y0092888D01*
X0077996Y0092774D01*
X0077883Y0092663D01*
X0077768Y0092554D01*
X0077650Y0092449D01*
X0077529Y0092347D01*
X0077406Y0092247D01*
X0077280Y0092151D01*
X0077152Y0092058D01*
X0077022Y0091968D01*
X0076889Y0091882D01*
X0076754Y0091798D01*
X0076618Y0091719D01*
X0076479Y0091642D01*
X0076338Y0091570D01*
X0076196Y0091500D01*
X0076052Y0091435D01*
X0075906Y0091373D01*
X0075759Y0091315D01*
X0075610Y0091260D01*
X0075460Y0091209D01*
X0075309Y0091162D01*
X0075157Y0091119D01*
X0075004Y0091080D01*
X0074849Y0091044D01*
X0074694Y0091013D01*
X0074538Y0090985D01*
X0074382Y0090961D01*
X0074225Y0090941D01*
X0074067Y0090925D01*
X0073910Y0090913D01*
X0073751Y0090905D01*
X0073593Y0090901D01*
X0073435Y0090901D01*
X0073277Y0090905D01*
X0073118Y0090913D01*
X0072961Y0090925D01*
X0072803Y0090941D01*
X0072646Y0090961D01*
X0072490Y0090985D01*
X0072334Y0091013D01*
X0072179Y0091044D01*
X0072024Y0091080D01*
X0071871Y0091119D01*
X0071719Y0091162D01*
X0071568Y0091209D01*
X0071418Y0091260D01*
X0071269Y0091315D01*
X0071122Y0091373D01*
X0070976Y0091435D01*
X0070832Y0091500D01*
X0070690Y0091570D01*
X0070549Y0091642D01*
X0070410Y0091719D01*
X0070274Y0091798D01*
X0070139Y0091882D01*
X0070006Y0091968D01*
X0069876Y0092058D01*
X0069748Y0092151D01*
X0069622Y0092247D01*
X0069499Y0092347D01*
X0069378Y0092449D01*
X0069260Y0092554D01*
X0069145Y0092663D01*
X0069032Y0092774D01*
X0068922Y0092888D01*
X0068815Y0093005D01*
X0068711Y0093124D01*
X0068610Y0093246D01*
X0068513Y0093371D01*
X0068418Y0093498D01*
X0068327Y0093627D01*
X0068238Y0093758D01*
X0068154Y0093892D01*
X0068072Y0094028D01*
X0067994Y0094165D01*
X0067920Y0094305D01*
X0067849Y0094447D01*
X0067781Y0094590D01*
X0067717Y0094735D01*
X0067657Y0094881D01*
X0067601Y0095029D01*
X0067548Y0095178D01*
X0067499Y0095329D01*
X0067454Y0095481D01*
X0067413Y0095634D01*
X0067375Y0095787D01*
X0067342Y0095942D01*
X0067312Y0096098D01*
X0067286Y0096254D01*
X0067265Y0096411D01*
X0067247Y0096568D01*
X0067233Y0096726D01*
X0067223Y0096884D01*
X0067217Y0097042D01*
X0067215Y0097200D01*
X0084715Y0167200D02*
X0084717Y0167358D01*
X0084723Y0167516D01*
X0084733Y0167674D01*
X0084747Y0167832D01*
X0084765Y0167989D01*
X0084786Y0168146D01*
X0084812Y0168302D01*
X0084842Y0168458D01*
X0084875Y0168613D01*
X0084913Y0168766D01*
X0084954Y0168919D01*
X0084999Y0169071D01*
X0085048Y0169222D01*
X0085101Y0169371D01*
X0085157Y0169519D01*
X0085217Y0169665D01*
X0085281Y0169810D01*
X0085349Y0169953D01*
X0085420Y0170095D01*
X0085494Y0170235D01*
X0085572Y0170372D01*
X0085654Y0170508D01*
X0085738Y0170642D01*
X0085827Y0170773D01*
X0085918Y0170902D01*
X0086013Y0171029D01*
X0086110Y0171154D01*
X0086211Y0171276D01*
X0086315Y0171395D01*
X0086422Y0171512D01*
X0086532Y0171626D01*
X0086645Y0171737D01*
X0086760Y0171846D01*
X0086878Y0171951D01*
X0086999Y0172053D01*
X0087122Y0172153D01*
X0087248Y0172249D01*
X0087376Y0172342D01*
X0087506Y0172432D01*
X0087639Y0172518D01*
X0087774Y0172602D01*
X0087910Y0172681D01*
X0088049Y0172758D01*
X0088190Y0172830D01*
X0088332Y0172900D01*
X0088476Y0172965D01*
X0088622Y0173027D01*
X0088769Y0173085D01*
X0088918Y0173140D01*
X0089068Y0173191D01*
X0089219Y0173238D01*
X0089371Y0173281D01*
X0089524Y0173320D01*
X0089679Y0173356D01*
X0089834Y0173387D01*
X0089990Y0173415D01*
X0090146Y0173439D01*
X0090303Y0173459D01*
X0090461Y0173475D01*
X0090618Y0173487D01*
X0090777Y0173495D01*
X0090935Y0173499D01*
X0091093Y0173499D01*
X0091251Y0173495D01*
X0091410Y0173487D01*
X0091567Y0173475D01*
X0091725Y0173459D01*
X0091882Y0173439D01*
X0092038Y0173415D01*
X0092194Y0173387D01*
X0092349Y0173356D01*
X0092504Y0173320D01*
X0092657Y0173281D01*
X0092809Y0173238D01*
X0092960Y0173191D01*
X0093110Y0173140D01*
X0093259Y0173085D01*
X0093406Y0173027D01*
X0093552Y0172965D01*
X0093696Y0172900D01*
X0093838Y0172830D01*
X0093979Y0172758D01*
X0094118Y0172681D01*
X0094254Y0172602D01*
X0094389Y0172518D01*
X0094522Y0172432D01*
X0094652Y0172342D01*
X0094780Y0172249D01*
X0094906Y0172153D01*
X0095029Y0172053D01*
X0095150Y0171951D01*
X0095268Y0171846D01*
X0095383Y0171737D01*
X0095496Y0171626D01*
X0095606Y0171512D01*
X0095713Y0171395D01*
X0095817Y0171276D01*
X0095918Y0171154D01*
X0096015Y0171029D01*
X0096110Y0170902D01*
X0096201Y0170773D01*
X0096290Y0170642D01*
X0096374Y0170508D01*
X0096456Y0170372D01*
X0096534Y0170235D01*
X0096608Y0170095D01*
X0096679Y0169953D01*
X0096747Y0169810D01*
X0096811Y0169665D01*
X0096871Y0169519D01*
X0096927Y0169371D01*
X0096980Y0169222D01*
X0097029Y0169071D01*
X0097074Y0168919D01*
X0097115Y0168766D01*
X0097153Y0168613D01*
X0097186Y0168458D01*
X0097216Y0168302D01*
X0097242Y0168146D01*
X0097263Y0167989D01*
X0097281Y0167832D01*
X0097295Y0167674D01*
X0097305Y0167516D01*
X0097311Y0167358D01*
X0097313Y0167200D01*
X0097311Y0167042D01*
X0097305Y0166884D01*
X0097295Y0166726D01*
X0097281Y0166568D01*
X0097263Y0166411D01*
X0097242Y0166254D01*
X0097216Y0166098D01*
X0097186Y0165942D01*
X0097153Y0165787D01*
X0097115Y0165634D01*
X0097074Y0165481D01*
X0097029Y0165329D01*
X0096980Y0165178D01*
X0096927Y0165029D01*
X0096871Y0164881D01*
X0096811Y0164735D01*
X0096747Y0164590D01*
X0096679Y0164447D01*
X0096608Y0164305D01*
X0096534Y0164165D01*
X0096456Y0164028D01*
X0096374Y0163892D01*
X0096290Y0163758D01*
X0096201Y0163627D01*
X0096110Y0163498D01*
X0096015Y0163371D01*
X0095918Y0163246D01*
X0095817Y0163124D01*
X0095713Y0163005D01*
X0095606Y0162888D01*
X0095496Y0162774D01*
X0095383Y0162663D01*
X0095268Y0162554D01*
X0095150Y0162449D01*
X0095029Y0162347D01*
X0094906Y0162247D01*
X0094780Y0162151D01*
X0094652Y0162058D01*
X0094522Y0161968D01*
X0094389Y0161882D01*
X0094254Y0161798D01*
X0094118Y0161719D01*
X0093979Y0161642D01*
X0093838Y0161570D01*
X0093696Y0161500D01*
X0093552Y0161435D01*
X0093406Y0161373D01*
X0093259Y0161315D01*
X0093110Y0161260D01*
X0092960Y0161209D01*
X0092809Y0161162D01*
X0092657Y0161119D01*
X0092504Y0161080D01*
X0092349Y0161044D01*
X0092194Y0161013D01*
X0092038Y0160985D01*
X0091882Y0160961D01*
X0091725Y0160941D01*
X0091567Y0160925D01*
X0091410Y0160913D01*
X0091251Y0160905D01*
X0091093Y0160901D01*
X0090935Y0160901D01*
X0090777Y0160905D01*
X0090618Y0160913D01*
X0090461Y0160925D01*
X0090303Y0160941D01*
X0090146Y0160961D01*
X0089990Y0160985D01*
X0089834Y0161013D01*
X0089679Y0161044D01*
X0089524Y0161080D01*
X0089371Y0161119D01*
X0089219Y0161162D01*
X0089068Y0161209D01*
X0088918Y0161260D01*
X0088769Y0161315D01*
X0088622Y0161373D01*
X0088476Y0161435D01*
X0088332Y0161500D01*
X0088190Y0161570D01*
X0088049Y0161642D01*
X0087910Y0161719D01*
X0087774Y0161798D01*
X0087639Y0161882D01*
X0087506Y0161968D01*
X0087376Y0162058D01*
X0087248Y0162151D01*
X0087122Y0162247D01*
X0086999Y0162347D01*
X0086878Y0162449D01*
X0086760Y0162554D01*
X0086645Y0162663D01*
X0086532Y0162774D01*
X0086422Y0162888D01*
X0086315Y0163005D01*
X0086211Y0163124D01*
X0086110Y0163246D01*
X0086013Y0163371D01*
X0085918Y0163498D01*
X0085827Y0163627D01*
X0085738Y0163758D01*
X0085654Y0163892D01*
X0085572Y0164028D01*
X0085494Y0164165D01*
X0085420Y0164305D01*
X0085349Y0164447D01*
X0085281Y0164590D01*
X0085217Y0164735D01*
X0085157Y0164881D01*
X0085101Y0165029D01*
X0085048Y0165178D01*
X0084999Y0165329D01*
X0084954Y0165481D01*
X0084913Y0165634D01*
X0084875Y0165787D01*
X0084842Y0165942D01*
X0084812Y0166098D01*
X0084786Y0166254D01*
X0084765Y0166411D01*
X0084747Y0166568D01*
X0084733Y0166726D01*
X0084723Y0166884D01*
X0084717Y0167042D01*
X0084715Y0167200D01*
X0174715Y0157200D02*
X0174717Y0157358D01*
X0174723Y0157516D01*
X0174733Y0157674D01*
X0174747Y0157832D01*
X0174765Y0157989D01*
X0174786Y0158146D01*
X0174812Y0158302D01*
X0174842Y0158458D01*
X0174875Y0158613D01*
X0174913Y0158766D01*
X0174954Y0158919D01*
X0174999Y0159071D01*
X0175048Y0159222D01*
X0175101Y0159371D01*
X0175157Y0159519D01*
X0175217Y0159665D01*
X0175281Y0159810D01*
X0175349Y0159953D01*
X0175420Y0160095D01*
X0175494Y0160235D01*
X0175572Y0160372D01*
X0175654Y0160508D01*
X0175738Y0160642D01*
X0175827Y0160773D01*
X0175918Y0160902D01*
X0176013Y0161029D01*
X0176110Y0161154D01*
X0176211Y0161276D01*
X0176315Y0161395D01*
X0176422Y0161512D01*
X0176532Y0161626D01*
X0176645Y0161737D01*
X0176760Y0161846D01*
X0176878Y0161951D01*
X0176999Y0162053D01*
X0177122Y0162153D01*
X0177248Y0162249D01*
X0177376Y0162342D01*
X0177506Y0162432D01*
X0177639Y0162518D01*
X0177774Y0162602D01*
X0177910Y0162681D01*
X0178049Y0162758D01*
X0178190Y0162830D01*
X0178332Y0162900D01*
X0178476Y0162965D01*
X0178622Y0163027D01*
X0178769Y0163085D01*
X0178918Y0163140D01*
X0179068Y0163191D01*
X0179219Y0163238D01*
X0179371Y0163281D01*
X0179524Y0163320D01*
X0179679Y0163356D01*
X0179834Y0163387D01*
X0179990Y0163415D01*
X0180146Y0163439D01*
X0180303Y0163459D01*
X0180461Y0163475D01*
X0180618Y0163487D01*
X0180777Y0163495D01*
X0180935Y0163499D01*
X0181093Y0163499D01*
X0181251Y0163495D01*
X0181410Y0163487D01*
X0181567Y0163475D01*
X0181725Y0163459D01*
X0181882Y0163439D01*
X0182038Y0163415D01*
X0182194Y0163387D01*
X0182349Y0163356D01*
X0182504Y0163320D01*
X0182657Y0163281D01*
X0182809Y0163238D01*
X0182960Y0163191D01*
X0183110Y0163140D01*
X0183259Y0163085D01*
X0183406Y0163027D01*
X0183552Y0162965D01*
X0183696Y0162900D01*
X0183838Y0162830D01*
X0183979Y0162758D01*
X0184118Y0162681D01*
X0184254Y0162602D01*
X0184389Y0162518D01*
X0184522Y0162432D01*
X0184652Y0162342D01*
X0184780Y0162249D01*
X0184906Y0162153D01*
X0185029Y0162053D01*
X0185150Y0161951D01*
X0185268Y0161846D01*
X0185383Y0161737D01*
X0185496Y0161626D01*
X0185606Y0161512D01*
X0185713Y0161395D01*
X0185817Y0161276D01*
X0185918Y0161154D01*
X0186015Y0161029D01*
X0186110Y0160902D01*
X0186201Y0160773D01*
X0186290Y0160642D01*
X0186374Y0160508D01*
X0186456Y0160372D01*
X0186534Y0160235D01*
X0186608Y0160095D01*
X0186679Y0159953D01*
X0186747Y0159810D01*
X0186811Y0159665D01*
X0186871Y0159519D01*
X0186927Y0159371D01*
X0186980Y0159222D01*
X0187029Y0159071D01*
X0187074Y0158919D01*
X0187115Y0158766D01*
X0187153Y0158613D01*
X0187186Y0158458D01*
X0187216Y0158302D01*
X0187242Y0158146D01*
X0187263Y0157989D01*
X0187281Y0157832D01*
X0187295Y0157674D01*
X0187305Y0157516D01*
X0187311Y0157358D01*
X0187313Y0157200D01*
X0187311Y0157042D01*
X0187305Y0156884D01*
X0187295Y0156726D01*
X0187281Y0156568D01*
X0187263Y0156411D01*
X0187242Y0156254D01*
X0187216Y0156098D01*
X0187186Y0155942D01*
X0187153Y0155787D01*
X0187115Y0155634D01*
X0187074Y0155481D01*
X0187029Y0155329D01*
X0186980Y0155178D01*
X0186927Y0155029D01*
X0186871Y0154881D01*
X0186811Y0154735D01*
X0186747Y0154590D01*
X0186679Y0154447D01*
X0186608Y0154305D01*
X0186534Y0154165D01*
X0186456Y0154028D01*
X0186374Y0153892D01*
X0186290Y0153758D01*
X0186201Y0153627D01*
X0186110Y0153498D01*
X0186015Y0153371D01*
X0185918Y0153246D01*
X0185817Y0153124D01*
X0185713Y0153005D01*
X0185606Y0152888D01*
X0185496Y0152774D01*
X0185383Y0152663D01*
X0185268Y0152554D01*
X0185150Y0152449D01*
X0185029Y0152347D01*
X0184906Y0152247D01*
X0184780Y0152151D01*
X0184652Y0152058D01*
X0184522Y0151968D01*
X0184389Y0151882D01*
X0184254Y0151798D01*
X0184118Y0151719D01*
X0183979Y0151642D01*
X0183838Y0151570D01*
X0183696Y0151500D01*
X0183552Y0151435D01*
X0183406Y0151373D01*
X0183259Y0151315D01*
X0183110Y0151260D01*
X0182960Y0151209D01*
X0182809Y0151162D01*
X0182657Y0151119D01*
X0182504Y0151080D01*
X0182349Y0151044D01*
X0182194Y0151013D01*
X0182038Y0150985D01*
X0181882Y0150961D01*
X0181725Y0150941D01*
X0181567Y0150925D01*
X0181410Y0150913D01*
X0181251Y0150905D01*
X0181093Y0150901D01*
X0180935Y0150901D01*
X0180777Y0150905D01*
X0180618Y0150913D01*
X0180461Y0150925D01*
X0180303Y0150941D01*
X0180146Y0150961D01*
X0179990Y0150985D01*
X0179834Y0151013D01*
X0179679Y0151044D01*
X0179524Y0151080D01*
X0179371Y0151119D01*
X0179219Y0151162D01*
X0179068Y0151209D01*
X0178918Y0151260D01*
X0178769Y0151315D01*
X0178622Y0151373D01*
X0178476Y0151435D01*
X0178332Y0151500D01*
X0178190Y0151570D01*
X0178049Y0151642D01*
X0177910Y0151719D01*
X0177774Y0151798D01*
X0177639Y0151882D01*
X0177506Y0151968D01*
X0177376Y0152058D01*
X0177248Y0152151D01*
X0177122Y0152247D01*
X0176999Y0152347D01*
X0176878Y0152449D01*
X0176760Y0152554D01*
X0176645Y0152663D01*
X0176532Y0152774D01*
X0176422Y0152888D01*
X0176315Y0153005D01*
X0176211Y0153124D01*
X0176110Y0153246D01*
X0176013Y0153371D01*
X0175918Y0153498D01*
X0175827Y0153627D01*
X0175738Y0153758D01*
X0175654Y0153892D01*
X0175572Y0154028D01*
X0175494Y0154165D01*
X0175420Y0154305D01*
X0175349Y0154447D01*
X0175281Y0154590D01*
X0175217Y0154735D01*
X0175157Y0154881D01*
X0175101Y0155029D01*
X0175048Y0155178D01*
X0174999Y0155329D01*
X0174954Y0155481D01*
X0174913Y0155634D01*
X0174875Y0155787D01*
X0174842Y0155942D01*
X0174812Y0156098D01*
X0174786Y0156254D01*
X0174765Y0156411D01*
X0174747Y0156568D01*
X0174733Y0156726D01*
X0174723Y0156884D01*
X0174717Y0157042D01*
X0174715Y0157200D01*
X0184715Y0032200D02*
X0184717Y0032358D01*
X0184723Y0032516D01*
X0184733Y0032674D01*
X0184747Y0032832D01*
X0184765Y0032989D01*
X0184786Y0033146D01*
X0184812Y0033302D01*
X0184842Y0033458D01*
X0184875Y0033613D01*
X0184913Y0033766D01*
X0184954Y0033919D01*
X0184999Y0034071D01*
X0185048Y0034222D01*
X0185101Y0034371D01*
X0185157Y0034519D01*
X0185217Y0034665D01*
X0185281Y0034810D01*
X0185349Y0034953D01*
X0185420Y0035095D01*
X0185494Y0035235D01*
X0185572Y0035372D01*
X0185654Y0035508D01*
X0185738Y0035642D01*
X0185827Y0035773D01*
X0185918Y0035902D01*
X0186013Y0036029D01*
X0186110Y0036154D01*
X0186211Y0036276D01*
X0186315Y0036395D01*
X0186422Y0036512D01*
X0186532Y0036626D01*
X0186645Y0036737D01*
X0186760Y0036846D01*
X0186878Y0036951D01*
X0186999Y0037053D01*
X0187122Y0037153D01*
X0187248Y0037249D01*
X0187376Y0037342D01*
X0187506Y0037432D01*
X0187639Y0037518D01*
X0187774Y0037602D01*
X0187910Y0037681D01*
X0188049Y0037758D01*
X0188190Y0037830D01*
X0188332Y0037900D01*
X0188476Y0037965D01*
X0188622Y0038027D01*
X0188769Y0038085D01*
X0188918Y0038140D01*
X0189068Y0038191D01*
X0189219Y0038238D01*
X0189371Y0038281D01*
X0189524Y0038320D01*
X0189679Y0038356D01*
X0189834Y0038387D01*
X0189990Y0038415D01*
X0190146Y0038439D01*
X0190303Y0038459D01*
X0190461Y0038475D01*
X0190618Y0038487D01*
X0190777Y0038495D01*
X0190935Y0038499D01*
X0191093Y0038499D01*
X0191251Y0038495D01*
X0191410Y0038487D01*
X0191567Y0038475D01*
X0191725Y0038459D01*
X0191882Y0038439D01*
X0192038Y0038415D01*
X0192194Y0038387D01*
X0192349Y0038356D01*
X0192504Y0038320D01*
X0192657Y0038281D01*
X0192809Y0038238D01*
X0192960Y0038191D01*
X0193110Y0038140D01*
X0193259Y0038085D01*
X0193406Y0038027D01*
X0193552Y0037965D01*
X0193696Y0037900D01*
X0193838Y0037830D01*
X0193979Y0037758D01*
X0194118Y0037681D01*
X0194254Y0037602D01*
X0194389Y0037518D01*
X0194522Y0037432D01*
X0194652Y0037342D01*
X0194780Y0037249D01*
X0194906Y0037153D01*
X0195029Y0037053D01*
X0195150Y0036951D01*
X0195268Y0036846D01*
X0195383Y0036737D01*
X0195496Y0036626D01*
X0195606Y0036512D01*
X0195713Y0036395D01*
X0195817Y0036276D01*
X0195918Y0036154D01*
X0196015Y0036029D01*
X0196110Y0035902D01*
X0196201Y0035773D01*
X0196290Y0035642D01*
X0196374Y0035508D01*
X0196456Y0035372D01*
X0196534Y0035235D01*
X0196608Y0035095D01*
X0196679Y0034953D01*
X0196747Y0034810D01*
X0196811Y0034665D01*
X0196871Y0034519D01*
X0196927Y0034371D01*
X0196980Y0034222D01*
X0197029Y0034071D01*
X0197074Y0033919D01*
X0197115Y0033766D01*
X0197153Y0033613D01*
X0197186Y0033458D01*
X0197216Y0033302D01*
X0197242Y0033146D01*
X0197263Y0032989D01*
X0197281Y0032832D01*
X0197295Y0032674D01*
X0197305Y0032516D01*
X0197311Y0032358D01*
X0197313Y0032200D01*
X0197311Y0032042D01*
X0197305Y0031884D01*
X0197295Y0031726D01*
X0197281Y0031568D01*
X0197263Y0031411D01*
X0197242Y0031254D01*
X0197216Y0031098D01*
X0197186Y0030942D01*
X0197153Y0030787D01*
X0197115Y0030634D01*
X0197074Y0030481D01*
X0197029Y0030329D01*
X0196980Y0030178D01*
X0196927Y0030029D01*
X0196871Y0029881D01*
X0196811Y0029735D01*
X0196747Y0029590D01*
X0196679Y0029447D01*
X0196608Y0029305D01*
X0196534Y0029165D01*
X0196456Y0029028D01*
X0196374Y0028892D01*
X0196290Y0028758D01*
X0196201Y0028627D01*
X0196110Y0028498D01*
X0196015Y0028371D01*
X0195918Y0028246D01*
X0195817Y0028124D01*
X0195713Y0028005D01*
X0195606Y0027888D01*
X0195496Y0027774D01*
X0195383Y0027663D01*
X0195268Y0027554D01*
X0195150Y0027449D01*
X0195029Y0027347D01*
X0194906Y0027247D01*
X0194780Y0027151D01*
X0194652Y0027058D01*
X0194522Y0026968D01*
X0194389Y0026882D01*
X0194254Y0026798D01*
X0194118Y0026719D01*
X0193979Y0026642D01*
X0193838Y0026570D01*
X0193696Y0026500D01*
X0193552Y0026435D01*
X0193406Y0026373D01*
X0193259Y0026315D01*
X0193110Y0026260D01*
X0192960Y0026209D01*
X0192809Y0026162D01*
X0192657Y0026119D01*
X0192504Y0026080D01*
X0192349Y0026044D01*
X0192194Y0026013D01*
X0192038Y0025985D01*
X0191882Y0025961D01*
X0191725Y0025941D01*
X0191567Y0025925D01*
X0191410Y0025913D01*
X0191251Y0025905D01*
X0191093Y0025901D01*
X0190935Y0025901D01*
X0190777Y0025905D01*
X0190618Y0025913D01*
X0190461Y0025925D01*
X0190303Y0025941D01*
X0190146Y0025961D01*
X0189990Y0025985D01*
X0189834Y0026013D01*
X0189679Y0026044D01*
X0189524Y0026080D01*
X0189371Y0026119D01*
X0189219Y0026162D01*
X0189068Y0026209D01*
X0188918Y0026260D01*
X0188769Y0026315D01*
X0188622Y0026373D01*
X0188476Y0026435D01*
X0188332Y0026500D01*
X0188190Y0026570D01*
X0188049Y0026642D01*
X0187910Y0026719D01*
X0187774Y0026798D01*
X0187639Y0026882D01*
X0187506Y0026968D01*
X0187376Y0027058D01*
X0187248Y0027151D01*
X0187122Y0027247D01*
X0186999Y0027347D01*
X0186878Y0027449D01*
X0186760Y0027554D01*
X0186645Y0027663D01*
X0186532Y0027774D01*
X0186422Y0027888D01*
X0186315Y0028005D01*
X0186211Y0028124D01*
X0186110Y0028246D01*
X0186013Y0028371D01*
X0185918Y0028498D01*
X0185827Y0028627D01*
X0185738Y0028758D01*
X0185654Y0028892D01*
X0185572Y0029028D01*
X0185494Y0029165D01*
X0185420Y0029305D01*
X0185349Y0029447D01*
X0185281Y0029590D01*
X0185217Y0029735D01*
X0185157Y0029881D01*
X0185101Y0030029D01*
X0185048Y0030178D01*
X0184999Y0030329D01*
X0184954Y0030481D01*
X0184913Y0030634D01*
X0184875Y0030787D01*
X0184842Y0030942D01*
X0184812Y0031098D01*
X0184786Y0031254D01*
X0184765Y0031411D01*
X0184747Y0031568D01*
X0184733Y0031726D01*
X0184723Y0031884D01*
X0184717Y0032042D01*
X0184715Y0032200D01*
D11*
X0166014Y0102200D03*
X0091014Y0037200D03*
D12*
X0081014Y0037200D03*
X0166014Y0112200D03*
D13*
X0166014Y0127200D03*
X0166014Y0167200D03*
X0151014Y0187200D03*
X0191014Y0187200D03*
X0196014Y0177200D03*
X0196014Y0167200D03*
X0058514Y0162200D03*
X0046014Y0162200D03*
X0036014Y0162200D03*
X0016014Y0162200D03*
X0016014Y0152200D03*
X0058514Y0122200D03*
X0051014Y0092200D03*
X0031014Y0073263D03*
X0031014Y0063263D03*
X0051014Y0052200D03*
X0051014Y0027200D03*
X0061014Y0027200D03*
X0106014Y0014700D03*
X0111014Y0007200D03*
X0116014Y0014700D03*
D14*
X0131014Y0014700D03*
X0151014Y0014700D03*
X0171014Y0014700D03*
X0191014Y0014700D03*
X0198514Y0077200D03*
X0198514Y0087200D03*
X0198514Y0097200D03*
X0198514Y0107200D03*
X0198514Y0117200D03*
X0198514Y0127200D03*
X0198514Y0137200D03*
X0091014Y0092200D03*
X0091014Y0082200D03*
X0091014Y0072200D03*
X0011014Y0077200D03*
X0011014Y0087200D03*
X0011014Y0097200D03*
X0011014Y0107200D03*
X0011014Y0117200D03*
X0011014Y0127200D03*
X0011014Y0137200D03*
X0016014Y0182200D03*
X0026014Y0182200D03*
X0036014Y0182200D03*
X0046014Y0182200D03*
X0056014Y0182200D03*
D15*
X0011014Y0067200D03*
X0198514Y0067200D03*
D16*
X0036093Y0033499D03*
X0031368Y0030350D03*
X0036093Y0027200D03*
X0031368Y0024050D03*
X0036093Y0020901D03*
D17*
X0016014Y0012830D03*
X0016014Y0041570D03*
D18*
X0108414Y0037200D02*
X0113614Y0037200D01*
X0113614Y0047200D02*
X0108414Y0047200D01*
X0108414Y0057200D02*
X0113614Y0057200D01*
X0113614Y0067200D02*
X0108414Y0067200D01*
X0108414Y0077200D02*
X0113614Y0077200D01*
X0113614Y0087200D02*
X0108414Y0087200D01*
X0108414Y0097200D02*
X0113614Y0097200D01*
X0113614Y0107200D02*
X0108414Y0107200D01*
X0108414Y0117200D02*
X0113614Y0117200D01*
X0113614Y0127200D02*
X0108414Y0127200D01*
X0108414Y0137200D02*
X0113614Y0137200D01*
X0113614Y0147200D02*
X0108414Y0147200D01*
X0108414Y0157200D02*
X0113614Y0157200D01*
X0113614Y0167200D02*
X0108414Y0167200D01*
X0138414Y0167200D02*
X0143614Y0167200D01*
X0143614Y0157200D02*
X0138414Y0157200D01*
X0138414Y0147200D02*
X0143614Y0147200D01*
X0143614Y0137200D02*
X0138414Y0137200D01*
X0138414Y0127200D02*
X0143614Y0127200D01*
X0143614Y0117200D02*
X0138414Y0117200D01*
X0138414Y0107200D02*
X0143614Y0107200D01*
X0143614Y0097200D02*
X0138414Y0097200D01*
X0138414Y0087200D02*
X0143614Y0087200D01*
X0143614Y0077200D02*
X0138414Y0077200D01*
X0138414Y0067200D02*
X0143614Y0067200D01*
X0143614Y0057200D02*
X0138414Y0057200D01*
X0138414Y0047200D02*
X0143614Y0047200D01*
X0143614Y0037200D02*
X0138414Y0037200D01*
D19*
X0078888Y0007200D03*
X0071014Y0007200D03*
X0063140Y0007200D03*
D20*
X0055266Y0007200D03*
X0086762Y0007200D03*
D21*
X0071014Y0007200D02*
X0070914Y0007700D01*
X0077514Y0022500D02*
X0067014Y0033000D01*
X0044814Y0033000D01*
X0034614Y0038500D02*
X0067314Y0038500D01*
X0078614Y0027200D01*
X0111014Y0027200D01*
X0128514Y0044700D01*
X0128514Y0097286D01*
X0128600Y0097286D01*
X0138514Y0107200D01*
X0141014Y0107200D01*
X0140214Y0116600D02*
X0141014Y0117200D01*
X0140214Y0116600D02*
X0128614Y0105000D01*
X0128614Y0133100D01*
X0097314Y0133100D01*
X0063214Y0167200D01*
X0035714Y0167200D01*
X0035714Y0162800D01*
X0036014Y0162200D01*
X0034614Y0157300D02*
X0053314Y0157300D01*
X0057714Y0161700D01*
X0058514Y0162200D01*
X0057714Y0162800D01*
X0056114Y0172100D02*
X0046014Y0182200D01*
X0035714Y0172700D02*
X0026914Y0181500D01*
X0026014Y0182200D01*
X0017014Y0182600D02*
X0016014Y0182200D01*
X0017014Y0182600D02*
X0027514Y0193100D01*
X0084614Y0193100D01*
X0110514Y0167200D01*
X0111014Y0167200D01*
X0130314Y0167200D01*
X0150114Y0187000D01*
X0151014Y0187200D01*
X0161114Y0187000D02*
X0141314Y0167200D01*
X0141014Y0167200D01*
X0138514Y0167200D01*
X0133514Y0162200D01*
X0133514Y0160500D01*
X0128614Y0155600D01*
X0128614Y0133100D01*
X0123514Y0132200D02*
X0123514Y0134700D01*
X0128514Y0139700D01*
X0123514Y0132200D02*
X0128514Y0127200D01*
X0141014Y0127200D02*
X0141314Y0126500D01*
X0150014Y0126500D01*
X0158814Y0117700D01*
X0198514Y0117700D01*
X0198514Y0117200D01*
X0198514Y0107200D02*
X0198514Y0106700D01*
X0160014Y0068200D01*
X0141314Y0068200D01*
X0141014Y0067200D01*
X0141014Y0057200D02*
X0158914Y0057200D01*
X0198514Y0096800D01*
X0198514Y0097200D01*
X0198514Y0087200D02*
X0198514Y0086900D01*
X0158914Y0047300D01*
X0141314Y0047300D01*
X0141014Y0047200D01*
X0133614Y0047300D02*
X0133514Y0047200D01*
X0133514Y0042200D01*
X0113814Y0022500D01*
X0077514Y0022500D01*
X0079714Y0031900D02*
X0106114Y0031900D01*
X0110514Y0036300D01*
X0111014Y0037200D01*
X0111014Y0047200D02*
X0111614Y0047300D01*
X0111614Y0047800D01*
X0107214Y0047800D01*
X0091814Y0037400D01*
X0091014Y0037200D01*
X0090714Y0037400D01*
X0087414Y0037400D01*
X0077514Y0047300D01*
X0055514Y0047300D01*
X0051114Y0051700D01*
X0051014Y0052200D01*
X0051114Y0052800D01*
X0031314Y0072600D01*
X0031014Y0073263D01*
X0030214Y0073700D01*
X0014814Y0073700D01*
X0011514Y0077000D01*
X0011014Y0077200D01*
X0011514Y0086900D02*
X0011014Y0087200D01*
X0011514Y0086900D02*
X0028014Y0086900D01*
X0057714Y0057200D01*
X0111014Y0057200D01*
X0111614Y0047800D02*
X0114914Y0047800D01*
X0123714Y0056600D01*
X0123714Y0100100D01*
X0128614Y0105000D01*
X0140214Y0096800D02*
X0141014Y0097200D01*
X0140214Y0096800D02*
X0133614Y0090200D01*
X0133614Y0047300D01*
X0141014Y0037200D02*
X0141314Y0037400D01*
X0141014Y0037200D02*
X0140214Y0036300D01*
X0141014Y0032200D02*
X0146014Y0037200D01*
X0111014Y0007200D02*
X0110514Y0007700D01*
X0079714Y0031900D02*
X0068414Y0043200D01*
X0031014Y0043200D01*
X0026914Y0039100D01*
X0031314Y0030800D02*
X0031368Y0030350D01*
X0031314Y0024200D02*
X0031368Y0024050D01*
X0087414Y0067100D02*
X0110514Y0067100D01*
X0111014Y0067200D01*
X0110514Y0077000D02*
X0111014Y0077200D01*
X0110514Y0077000D02*
X0096214Y0077000D01*
X0091814Y0072600D01*
X0091014Y0072200D01*
X0087414Y0067100D02*
X0063214Y0091300D01*
X0051114Y0091300D01*
X0051014Y0092200D01*
X0050014Y0092400D01*
X0015914Y0092400D01*
X0011514Y0096800D01*
X0011014Y0097200D01*
X0011014Y0107200D02*
X0011514Y0107800D01*
X0110514Y0107800D01*
X0111014Y0107200D01*
X0111014Y0117200D02*
X0110514Y0117700D01*
X0011514Y0117700D01*
X0011014Y0117200D01*
X0011014Y0127200D02*
X0011514Y0127600D01*
X0018114Y0134200D01*
X0090714Y0134200D01*
X0085214Y0138600D02*
X0012614Y0138600D01*
X0011514Y0137500D01*
X0011014Y0137200D01*
X0034614Y0157300D02*
X0030214Y0161700D01*
X0017014Y0161700D01*
X0016014Y0162200D01*
X0035714Y0167200D02*
X0035714Y0172700D01*
X0056114Y0172100D02*
X0066614Y0172100D01*
X0101214Y0137500D01*
X0110514Y0137500D01*
X0111014Y0137200D01*
X0141014Y0137200D02*
X0141314Y0136400D01*
X0189714Y0136400D01*
X0198514Y0127600D01*
X0198514Y0127200D01*
X0198514Y0137200D02*
X0198514Y0137500D01*
X0189714Y0146300D01*
X0141314Y0146300D01*
X0141014Y0147200D01*
X0166014Y0167200D02*
X0196014Y0167200D01*
X0196014Y0177200D02*
X0195214Y0178200D01*
X0195214Y0183700D01*
X0191914Y0187000D01*
X0191014Y0187200D01*
X0190814Y0187000D01*
X0161114Y0187000D01*
X0166014Y0102200D02*
X0165514Y0101200D01*
X0152314Y0088000D01*
X0141314Y0088000D01*
X0141014Y0087200D01*
X0111014Y0087200D02*
X0110514Y0088000D01*
X0095114Y0088000D01*
X0091814Y0091300D01*
X0091014Y0092200D01*
X0198514Y0077200D02*
X0198514Y0077000D01*
D22*
X0090714Y0134200D03*
X0085214Y0138600D03*
X0044814Y0033000D03*
D23*
X0034614Y0038500D02*
X0031314Y0035200D01*
X0031314Y0030800D01*
X0026914Y0028600D02*
X0026914Y0039100D01*
X0026914Y0028600D02*
X0031314Y0024200D01*
D24*
X0036093Y0033499D02*
X0043514Y0028578D01*
X0043514Y0019700D01*
X0048514Y0014700D01*
X0061014Y0014700D01*
X0063140Y0012574D01*
X0063140Y0007200D01*
X0070914Y0007700D02*
X0070914Y0014600D01*
X0091014Y0014600D01*
X0097914Y0007700D01*
X0110514Y0007700D01*
X0111014Y0007200D02*
X0118514Y0007200D01*
X0123514Y0012200D01*
X0123514Y0019700D01*
X0126014Y0022200D01*
X0131014Y0022200D01*
X0140214Y0031400D01*
X0140214Y0036300D01*
X0141314Y0037400D02*
X0161214Y0037400D01*
X0188514Y0064700D01*
X0188514Y0069700D01*
X0196014Y0077200D01*
X0198514Y0077200D01*
X0070914Y0016500D02*
X0070914Y0014600D01*
X0070914Y0016500D02*
X0061014Y0026400D01*
X0061014Y0027200D01*
M02*
