G75*
%MOIN*%
%OFA0B0*%
%FSLAX25Y25*%
%IPPOS*%
%LPD*%
%AMOC8*
5,1,8,0,0,1.08239X$1,22.5*
%
%ADD10C,0.00600*%
%ADD11C,0.01600*%
%ADD12C,0.00000*%
%ADD13C,0.00300*%
%ADD14C,0.01000*%
%ADD15C,0.00500*%
%ADD16C,0.00800*%
%ADD17C,0.00400*%
%ADD18R,0.02400X0.03400*%
%ADD19R,0.03400X0.02400*%
%ADD20C,0.00200*%
%ADD21R,0.03937X0.01969*%
%ADD22C,0.00100*%
D10*
X0046514Y0023200D02*
X0046514Y0031200D01*
X0046516Y0031260D01*
X0046521Y0031321D01*
X0046530Y0031380D01*
X0046543Y0031439D01*
X0046559Y0031498D01*
X0046579Y0031555D01*
X0046602Y0031610D01*
X0046629Y0031665D01*
X0046658Y0031717D01*
X0046691Y0031768D01*
X0046727Y0031817D01*
X0046765Y0031863D01*
X0046807Y0031907D01*
X0046851Y0031949D01*
X0046897Y0031987D01*
X0046946Y0032023D01*
X0046997Y0032056D01*
X0047049Y0032085D01*
X0047104Y0032112D01*
X0047159Y0032135D01*
X0047216Y0032155D01*
X0047275Y0032171D01*
X0047334Y0032184D01*
X0047393Y0032193D01*
X0047454Y0032198D01*
X0047514Y0032200D01*
X0064514Y0032200D01*
X0064574Y0032198D01*
X0064635Y0032193D01*
X0064694Y0032184D01*
X0064753Y0032171D01*
X0064812Y0032155D01*
X0064869Y0032135D01*
X0064924Y0032112D01*
X0064979Y0032085D01*
X0065031Y0032056D01*
X0065082Y0032023D01*
X0065131Y0031987D01*
X0065177Y0031949D01*
X0065221Y0031907D01*
X0065263Y0031863D01*
X0065301Y0031817D01*
X0065337Y0031768D01*
X0065370Y0031717D01*
X0065399Y0031665D01*
X0065426Y0031610D01*
X0065449Y0031555D01*
X0065469Y0031498D01*
X0065485Y0031439D01*
X0065498Y0031380D01*
X0065507Y0031321D01*
X0065512Y0031260D01*
X0065514Y0031200D01*
X0065514Y0023200D01*
X0065512Y0023140D01*
X0065507Y0023079D01*
X0065498Y0023020D01*
X0065485Y0022961D01*
X0065469Y0022902D01*
X0065449Y0022845D01*
X0065426Y0022790D01*
X0065399Y0022735D01*
X0065370Y0022683D01*
X0065337Y0022632D01*
X0065301Y0022583D01*
X0065263Y0022537D01*
X0065221Y0022493D01*
X0065177Y0022451D01*
X0065131Y0022413D01*
X0065082Y0022377D01*
X0065031Y0022344D01*
X0064979Y0022315D01*
X0064924Y0022288D01*
X0064869Y0022265D01*
X0064812Y0022245D01*
X0064753Y0022229D01*
X0064694Y0022216D01*
X0064635Y0022207D01*
X0064574Y0022202D01*
X0064514Y0022200D01*
X0047514Y0022200D01*
X0047454Y0022202D01*
X0047393Y0022207D01*
X0047334Y0022216D01*
X0047275Y0022229D01*
X0047216Y0022245D01*
X0047159Y0022265D01*
X0047104Y0022288D01*
X0047049Y0022315D01*
X0046997Y0022344D01*
X0046946Y0022377D01*
X0046897Y0022413D01*
X0046851Y0022451D01*
X0046807Y0022493D01*
X0046765Y0022537D01*
X0046727Y0022583D01*
X0046691Y0022632D01*
X0046658Y0022683D01*
X0046629Y0022735D01*
X0046602Y0022790D01*
X0046579Y0022845D01*
X0046559Y0022902D01*
X0046543Y0022961D01*
X0046530Y0023020D01*
X0046521Y0023079D01*
X0046516Y0023140D01*
X0046514Y0023200D01*
X0054514Y0027200D02*
X0055014Y0027200D01*
X0057014Y0027200D02*
X0057514Y0027200D01*
X0076514Y0029700D02*
X0076514Y0044700D01*
X0076516Y0044776D01*
X0076522Y0044852D01*
X0076531Y0044927D01*
X0076545Y0045002D01*
X0076562Y0045076D01*
X0076583Y0045149D01*
X0076607Y0045221D01*
X0076636Y0045292D01*
X0076667Y0045361D01*
X0076702Y0045428D01*
X0076741Y0045493D01*
X0076783Y0045557D01*
X0076828Y0045618D01*
X0076876Y0045677D01*
X0076927Y0045733D01*
X0076981Y0045787D01*
X0077037Y0045838D01*
X0077096Y0045886D01*
X0077157Y0045931D01*
X0077221Y0045973D01*
X0077286Y0046012D01*
X0077353Y0046047D01*
X0077422Y0046078D01*
X0077493Y0046107D01*
X0077565Y0046131D01*
X0077638Y0046152D01*
X0077712Y0046169D01*
X0077787Y0046183D01*
X0077862Y0046192D01*
X0077938Y0046198D01*
X0078014Y0046200D01*
X0092514Y0046200D01*
X0095514Y0043200D01*
X0095514Y0031200D01*
X0092514Y0028200D01*
X0078014Y0028200D01*
X0077938Y0028202D01*
X0077862Y0028208D01*
X0077787Y0028217D01*
X0077712Y0028231D01*
X0077638Y0028248D01*
X0077565Y0028269D01*
X0077493Y0028293D01*
X0077422Y0028322D01*
X0077353Y0028353D01*
X0077286Y0028388D01*
X0077221Y0028427D01*
X0077157Y0028469D01*
X0077096Y0028514D01*
X0077037Y0028562D01*
X0076981Y0028613D01*
X0076927Y0028667D01*
X0076876Y0028723D01*
X0076828Y0028782D01*
X0076783Y0028843D01*
X0076741Y0028907D01*
X0076702Y0028972D01*
X0076667Y0029039D01*
X0076636Y0029108D01*
X0076607Y0029179D01*
X0076583Y0029251D01*
X0076562Y0029324D01*
X0076545Y0029398D01*
X0076531Y0029473D01*
X0076522Y0029548D01*
X0076516Y0029624D01*
X0076514Y0029700D01*
X0091714Y0031800D02*
X0094314Y0031800D01*
X0093014Y0030600D02*
X0093014Y0033100D01*
X0102766Y0021200D02*
X0119262Y0021200D01*
X0119888Y0015700D02*
X0121467Y0015700D01*
X0119260Y0021200D02*
X0119415Y0020998D01*
X0119566Y0020793D01*
X0119711Y0020584D01*
X0119851Y0020371D01*
X0119986Y0020155D01*
X0120115Y0019936D01*
X0120239Y0019714D01*
X0120358Y0019489D01*
X0120472Y0019261D01*
X0120579Y0019031D01*
X0120681Y0018798D01*
X0120778Y0018562D01*
X0120869Y0018324D01*
X0120954Y0018084D01*
X0121033Y0017842D01*
X0121106Y0017599D01*
X0121173Y0017353D01*
X0121235Y0017106D01*
X0121290Y0016858D01*
X0121339Y0016608D01*
X0121382Y0016357D01*
X0121419Y0016106D01*
X0121450Y0015853D01*
X0121475Y0015600D01*
X0121494Y0015346D01*
X0121507Y0015092D01*
X0121513Y0014837D01*
X0121513Y0014583D01*
X0121507Y0014328D01*
X0121495Y0014074D01*
X0121477Y0013820D01*
X0121453Y0013567D01*
X0121422Y0013314D01*
X0121386Y0013063D01*
X0121343Y0012812D01*
X0121294Y0012562D01*
X0121239Y0012313D01*
X0121178Y0012066D01*
X0121112Y0011821D01*
X0121039Y0011577D01*
X0120960Y0011335D01*
X0120876Y0011095D01*
X0120785Y0010857D01*
X0120689Y0010621D01*
X0120588Y0010388D01*
X0120480Y0010157D01*
X0120367Y0009929D01*
X0120249Y0009704D01*
X0120125Y0009481D01*
X0119996Y0009262D01*
X0119862Y0009046D01*
X0119722Y0008833D01*
X0119577Y0008624D01*
X0119428Y0008418D01*
X0119273Y0008216D01*
X0119113Y0008018D01*
X0118949Y0007824D01*
X0118780Y0007633D01*
X0118606Y0007447D01*
X0118428Y0007265D01*
X0118246Y0007088D01*
X0118059Y0006915D01*
X0117869Y0006746D01*
X0117674Y0006582D01*
X0117475Y0006423D01*
X0117273Y0006269D01*
X0117067Y0006120D01*
X0116857Y0005976D01*
X0116644Y0005837D01*
X0116427Y0005703D01*
X0116208Y0005574D01*
X0115985Y0005451D01*
X0115759Y0005333D01*
X0115531Y0005221D01*
X0115300Y0005115D01*
X0115066Y0005013D01*
X0114830Y0004918D01*
X0114592Y0004828D01*
X0114352Y0004745D01*
X0114110Y0004667D01*
X0107916Y0004667D02*
X0107674Y0004745D01*
X0107434Y0004829D01*
X0107196Y0004918D01*
X0106960Y0005014D01*
X0106726Y0005115D01*
X0106495Y0005221D01*
X0106267Y0005334D01*
X0106041Y0005451D01*
X0105818Y0005574D01*
X0105599Y0005703D01*
X0105382Y0005837D01*
X0105169Y0005976D01*
X0104959Y0006120D01*
X0104753Y0006269D01*
X0104551Y0006423D01*
X0104352Y0006582D01*
X0104157Y0006746D01*
X0103966Y0006915D01*
X0103780Y0007088D01*
X0103597Y0007265D01*
X0103419Y0007447D01*
X0103246Y0007633D01*
X0103077Y0007824D01*
X0102913Y0008018D01*
X0102753Y0008216D01*
X0102598Y0008418D01*
X0102449Y0008624D01*
X0102304Y0008833D01*
X0102164Y0009046D01*
X0102030Y0009262D01*
X0101901Y0009482D01*
X0101777Y0009704D01*
X0101658Y0009929D01*
X0101546Y0010157D01*
X0101438Y0010388D01*
X0101337Y0010621D01*
X0101241Y0010857D01*
X0101150Y0011095D01*
X0101066Y0011335D01*
X0100987Y0011577D01*
X0100914Y0011821D01*
X0100848Y0012067D01*
X0100787Y0012314D01*
X0100732Y0012562D01*
X0100683Y0012812D01*
X0100640Y0013063D01*
X0100604Y0013315D01*
X0100573Y0013567D01*
X0100549Y0013821D01*
X0100531Y0014074D01*
X0100519Y0014329D01*
X0100513Y0014583D01*
X0100513Y0014838D01*
X0100519Y0015092D01*
X0100532Y0015346D01*
X0100551Y0015600D01*
X0100576Y0015853D01*
X0100607Y0016106D01*
X0100644Y0016358D01*
X0100687Y0016608D01*
X0100736Y0016858D01*
X0100791Y0017107D01*
X0100853Y0017354D01*
X0100920Y0017599D01*
X0100993Y0017843D01*
X0101072Y0018085D01*
X0101157Y0018324D01*
X0101248Y0018562D01*
X0101345Y0018798D01*
X0101447Y0019031D01*
X0101555Y0019261D01*
X0101668Y0019489D01*
X0101787Y0019714D01*
X0101911Y0019936D01*
X0102040Y0020155D01*
X0102175Y0020371D01*
X0102315Y0020584D01*
X0102461Y0020793D01*
X0102611Y0020998D01*
X0102766Y0021200D01*
X0102140Y0015700D02*
X0100561Y0015700D01*
X0054514Y0059700D02*
X0047514Y0059700D01*
X0047454Y0059702D01*
X0047393Y0059707D01*
X0047334Y0059716D01*
X0047275Y0059729D01*
X0047216Y0059745D01*
X0047159Y0059765D01*
X0047104Y0059788D01*
X0047049Y0059815D01*
X0046997Y0059844D01*
X0046946Y0059877D01*
X0046897Y0059913D01*
X0046851Y0059951D01*
X0046807Y0059993D01*
X0046765Y0060037D01*
X0046727Y0060083D01*
X0046691Y0060132D01*
X0046658Y0060183D01*
X0046629Y0060235D01*
X0046602Y0060290D01*
X0046579Y0060345D01*
X0046559Y0060402D01*
X0046543Y0060461D01*
X0046530Y0060520D01*
X0046521Y0060579D01*
X0046516Y0060640D01*
X0046514Y0060700D01*
X0046514Y0062200D01*
X0047014Y0062700D01*
X0047014Y0081700D01*
X0046514Y0082200D01*
X0046514Y0083700D01*
X0046516Y0083760D01*
X0046521Y0083821D01*
X0046530Y0083880D01*
X0046543Y0083939D01*
X0046559Y0083998D01*
X0046579Y0084055D01*
X0046602Y0084110D01*
X0046629Y0084165D01*
X0046658Y0084217D01*
X0046691Y0084268D01*
X0046727Y0084317D01*
X0046765Y0084363D01*
X0046807Y0084407D01*
X0046851Y0084449D01*
X0046897Y0084487D01*
X0046946Y0084523D01*
X0046997Y0084556D01*
X0047049Y0084585D01*
X0047104Y0084612D01*
X0047159Y0084635D01*
X0047216Y0084655D01*
X0047275Y0084671D01*
X0047334Y0084684D01*
X0047393Y0084693D01*
X0047454Y0084698D01*
X0047514Y0084700D01*
X0054514Y0084700D01*
X0054574Y0084698D01*
X0054635Y0084693D01*
X0054694Y0084684D01*
X0054753Y0084671D01*
X0054812Y0084655D01*
X0054869Y0084635D01*
X0054924Y0084612D01*
X0054979Y0084585D01*
X0055031Y0084556D01*
X0055082Y0084523D01*
X0055131Y0084487D01*
X0055177Y0084449D01*
X0055221Y0084407D01*
X0055263Y0084363D01*
X0055301Y0084317D01*
X0055337Y0084268D01*
X0055370Y0084217D01*
X0055399Y0084165D01*
X0055426Y0084110D01*
X0055449Y0084055D01*
X0055469Y0083998D01*
X0055485Y0083939D01*
X0055498Y0083880D01*
X0055507Y0083821D01*
X0055512Y0083760D01*
X0055514Y0083700D01*
X0055514Y0082200D01*
X0055014Y0081700D01*
X0055014Y0062700D01*
X0055514Y0062200D01*
X0055514Y0060700D01*
X0055512Y0060640D01*
X0055507Y0060579D01*
X0055498Y0060520D01*
X0055485Y0060461D01*
X0055469Y0060402D01*
X0055449Y0060345D01*
X0055426Y0060290D01*
X0055399Y0060235D01*
X0055370Y0060183D01*
X0055337Y0060132D01*
X0055301Y0060083D01*
X0055263Y0060037D01*
X0055221Y0059993D01*
X0055177Y0059951D01*
X0055131Y0059913D01*
X0055082Y0059877D01*
X0055031Y0059844D01*
X0054979Y0059815D01*
X0054924Y0059788D01*
X0054869Y0059765D01*
X0054812Y0059745D01*
X0054753Y0059729D01*
X0054694Y0059716D01*
X0054635Y0059707D01*
X0054574Y0059702D01*
X0054514Y0059700D01*
X0036014Y0059763D02*
X0036014Y0076763D01*
X0036012Y0076823D01*
X0036007Y0076884D01*
X0035998Y0076943D01*
X0035985Y0077002D01*
X0035969Y0077061D01*
X0035949Y0077118D01*
X0035926Y0077173D01*
X0035899Y0077228D01*
X0035870Y0077280D01*
X0035837Y0077331D01*
X0035801Y0077380D01*
X0035763Y0077426D01*
X0035721Y0077470D01*
X0035677Y0077512D01*
X0035631Y0077550D01*
X0035582Y0077586D01*
X0035531Y0077619D01*
X0035479Y0077648D01*
X0035424Y0077675D01*
X0035369Y0077698D01*
X0035312Y0077718D01*
X0035253Y0077734D01*
X0035194Y0077747D01*
X0035135Y0077756D01*
X0035074Y0077761D01*
X0035014Y0077763D01*
X0027014Y0077763D01*
X0026954Y0077761D01*
X0026893Y0077756D01*
X0026834Y0077747D01*
X0026775Y0077734D01*
X0026716Y0077718D01*
X0026659Y0077698D01*
X0026604Y0077675D01*
X0026549Y0077648D01*
X0026497Y0077619D01*
X0026446Y0077586D01*
X0026397Y0077550D01*
X0026351Y0077512D01*
X0026307Y0077470D01*
X0026265Y0077426D01*
X0026227Y0077380D01*
X0026191Y0077331D01*
X0026158Y0077280D01*
X0026129Y0077228D01*
X0026102Y0077173D01*
X0026079Y0077118D01*
X0026059Y0077061D01*
X0026043Y0077002D01*
X0026030Y0076943D01*
X0026021Y0076884D01*
X0026016Y0076823D01*
X0026014Y0076763D01*
X0026014Y0059763D01*
X0026016Y0059703D01*
X0026021Y0059642D01*
X0026030Y0059583D01*
X0026043Y0059524D01*
X0026059Y0059465D01*
X0026079Y0059408D01*
X0026102Y0059353D01*
X0026129Y0059298D01*
X0026158Y0059246D01*
X0026191Y0059195D01*
X0026227Y0059146D01*
X0026265Y0059100D01*
X0026307Y0059056D01*
X0026351Y0059014D01*
X0026397Y0058976D01*
X0026446Y0058940D01*
X0026497Y0058907D01*
X0026549Y0058878D01*
X0026604Y0058851D01*
X0026659Y0058828D01*
X0026716Y0058808D01*
X0026775Y0058792D01*
X0026834Y0058779D01*
X0026893Y0058770D01*
X0026954Y0058765D01*
X0027014Y0058763D01*
X0035014Y0058763D01*
X0035074Y0058765D01*
X0035135Y0058770D01*
X0035194Y0058779D01*
X0035253Y0058792D01*
X0035312Y0058808D01*
X0035369Y0058828D01*
X0035424Y0058851D01*
X0035479Y0058878D01*
X0035531Y0058907D01*
X0035582Y0058940D01*
X0035631Y0058976D01*
X0035677Y0059014D01*
X0035721Y0059056D01*
X0035763Y0059100D01*
X0035801Y0059146D01*
X0035837Y0059195D01*
X0035870Y0059246D01*
X0035899Y0059298D01*
X0035926Y0059353D01*
X0035949Y0059408D01*
X0035969Y0059465D01*
X0035985Y0059524D01*
X0035998Y0059583D01*
X0036007Y0059642D01*
X0036012Y0059703D01*
X0036014Y0059763D01*
X0032408Y0062500D02*
X0033475Y0063568D01*
X0033475Y0067838D01*
X0032408Y0068905D01*
X0029205Y0068905D01*
X0029205Y0062500D01*
X0032408Y0062500D01*
X0031014Y0066763D02*
X0031014Y0067263D01*
X0031014Y0069263D02*
X0031014Y0069763D01*
X0030272Y0072500D02*
X0029205Y0073568D01*
X0030272Y0072500D02*
X0032408Y0072500D01*
X0033475Y0073568D01*
X0033475Y0074635D01*
X0032408Y0075703D01*
X0031340Y0075703D01*
X0032408Y0075703D02*
X0033475Y0076770D01*
X0033475Y0077838D01*
X0032408Y0078905D01*
X0030272Y0078905D01*
X0029205Y0077838D01*
X0027030Y0078905D02*
X0027030Y0074635D01*
X0024894Y0072500D01*
X0022759Y0074635D01*
X0022759Y0078905D01*
X0020584Y0077838D02*
X0020584Y0076770D01*
X0019517Y0075703D01*
X0020584Y0074635D01*
X0020584Y0073568D01*
X0019517Y0072500D01*
X0017381Y0072500D01*
X0016314Y0073568D01*
X0018449Y0075703D02*
X0019517Y0075703D01*
X0020584Y0077838D02*
X0019517Y0078905D01*
X0017381Y0078905D01*
X0016314Y0077838D01*
X0016314Y0082500D02*
X0016314Y0086770D01*
X0018449Y0088905D01*
X0020584Y0086770D01*
X0020584Y0082500D01*
X0020584Y0085703D02*
X0016314Y0085703D01*
X0016314Y0092500D02*
X0019517Y0092500D01*
X0020584Y0093568D01*
X0020584Y0094635D01*
X0019517Y0095703D01*
X0016314Y0095703D01*
X0016314Y0098905D02*
X0016314Y0092500D01*
X0019517Y0095703D02*
X0020584Y0096770D01*
X0020584Y0097838D01*
X0019517Y0098905D01*
X0016314Y0098905D01*
X0016314Y0102500D02*
X0019517Y0102500D01*
X0020584Y0103568D01*
X0020584Y0104635D01*
X0019517Y0105703D01*
X0016314Y0105703D01*
X0016314Y0108905D02*
X0016314Y0102500D01*
X0019517Y0105703D02*
X0020584Y0106770D01*
X0020584Y0107838D01*
X0019517Y0108905D01*
X0016314Y0108905D01*
X0016314Y0112500D02*
X0019517Y0112500D01*
X0020584Y0113568D01*
X0020584Y0114635D01*
X0019517Y0115703D01*
X0016314Y0115703D01*
X0016314Y0118905D02*
X0016314Y0112500D01*
X0019517Y0115703D02*
X0020584Y0116770D01*
X0020584Y0117838D01*
X0019517Y0118905D01*
X0016314Y0118905D01*
X0016314Y0122500D02*
X0016314Y0126770D01*
X0018449Y0128905D01*
X0020584Y0126770D01*
X0020584Y0122500D01*
X0022759Y0122500D02*
X0027030Y0122500D01*
X0024894Y0122500D02*
X0024894Y0128905D01*
X0022759Y0126770D01*
X0020584Y0125703D02*
X0016314Y0125703D01*
X0016314Y0132500D02*
X0016314Y0136770D01*
X0018449Y0138905D01*
X0020584Y0136770D01*
X0020584Y0132500D01*
X0022759Y0133568D02*
X0027030Y0137838D01*
X0027030Y0133568D01*
X0025962Y0132500D01*
X0023827Y0132500D01*
X0022759Y0133568D01*
X0022759Y0137838D01*
X0023827Y0138905D01*
X0025962Y0138905D01*
X0027030Y0137838D01*
X0020584Y0135703D02*
X0016314Y0135703D01*
X0023827Y0118905D02*
X0022759Y0117838D01*
X0023827Y0118905D02*
X0025962Y0118905D01*
X0027030Y0117838D01*
X0027030Y0116770D01*
X0022759Y0112500D01*
X0027030Y0112500D01*
X0025962Y0108905D02*
X0027030Y0107838D01*
X0027030Y0106770D01*
X0025962Y0105703D01*
X0027030Y0104635D01*
X0027030Y0103568D01*
X0025962Y0102500D01*
X0023827Y0102500D01*
X0022759Y0103568D01*
X0024894Y0105703D02*
X0025962Y0105703D01*
X0023827Y0108905D02*
X0022759Y0107838D01*
X0023827Y0108905D02*
X0025962Y0108905D01*
X0025962Y0098905D02*
X0022759Y0095703D01*
X0027030Y0095703D01*
X0025962Y0098905D02*
X0025962Y0092500D01*
X0025962Y0088905D02*
X0022759Y0085703D01*
X0027030Y0085703D01*
X0025962Y0088905D02*
X0025962Y0082500D01*
X0027030Y0068905D02*
X0027030Y0062500D01*
X0022759Y0068905D01*
X0022759Y0062500D01*
X0020584Y0063568D02*
X0020584Y0065703D01*
X0018449Y0065703D01*
X0016314Y0067838D02*
X0016314Y0063568D01*
X0017381Y0062500D01*
X0019517Y0062500D01*
X0020584Y0063568D01*
X0020584Y0067838D02*
X0019517Y0068905D01*
X0017381Y0068905D01*
X0016314Y0067838D01*
X0055014Y0129700D02*
X0062014Y0129700D01*
X0062074Y0129702D01*
X0062135Y0129707D01*
X0062194Y0129716D01*
X0062253Y0129729D01*
X0062312Y0129745D01*
X0062369Y0129765D01*
X0062424Y0129788D01*
X0062479Y0129815D01*
X0062531Y0129844D01*
X0062582Y0129877D01*
X0062631Y0129913D01*
X0062677Y0129951D01*
X0062721Y0129993D01*
X0062763Y0130037D01*
X0062801Y0130083D01*
X0062837Y0130132D01*
X0062870Y0130183D01*
X0062899Y0130235D01*
X0062926Y0130290D01*
X0062949Y0130345D01*
X0062969Y0130402D01*
X0062985Y0130461D01*
X0062998Y0130520D01*
X0063007Y0130579D01*
X0063012Y0130640D01*
X0063014Y0130700D01*
X0063014Y0132200D01*
X0062514Y0132700D01*
X0062514Y0151700D01*
X0063014Y0152200D01*
X0063014Y0153700D01*
X0063012Y0153760D01*
X0063007Y0153821D01*
X0062998Y0153880D01*
X0062985Y0153939D01*
X0062969Y0153998D01*
X0062949Y0154055D01*
X0062926Y0154110D01*
X0062899Y0154165D01*
X0062870Y0154217D01*
X0062837Y0154268D01*
X0062801Y0154317D01*
X0062763Y0154363D01*
X0062721Y0154407D01*
X0062677Y0154449D01*
X0062631Y0154487D01*
X0062582Y0154523D01*
X0062531Y0154556D01*
X0062479Y0154585D01*
X0062424Y0154612D01*
X0062369Y0154635D01*
X0062312Y0154655D01*
X0062253Y0154671D01*
X0062194Y0154684D01*
X0062135Y0154693D01*
X0062074Y0154698D01*
X0062014Y0154700D01*
X0055014Y0154700D01*
X0054954Y0154698D01*
X0054893Y0154693D01*
X0054834Y0154684D01*
X0054775Y0154671D01*
X0054716Y0154655D01*
X0054659Y0154635D01*
X0054604Y0154612D01*
X0054549Y0154585D01*
X0054497Y0154556D01*
X0054446Y0154523D01*
X0054397Y0154487D01*
X0054351Y0154449D01*
X0054307Y0154407D01*
X0054265Y0154363D01*
X0054227Y0154317D01*
X0054191Y0154268D01*
X0054158Y0154217D01*
X0054129Y0154165D01*
X0054102Y0154110D01*
X0054079Y0154055D01*
X0054059Y0153998D01*
X0054043Y0153939D01*
X0054030Y0153880D01*
X0054021Y0153821D01*
X0054016Y0153760D01*
X0054014Y0153700D01*
X0054014Y0152200D01*
X0054514Y0151700D01*
X0054514Y0132700D01*
X0054014Y0132200D01*
X0054014Y0130700D01*
X0054016Y0130640D01*
X0054021Y0130579D01*
X0054030Y0130520D01*
X0054043Y0130461D01*
X0054059Y0130402D01*
X0054079Y0130345D01*
X0054102Y0130290D01*
X0054129Y0130235D01*
X0054158Y0130183D01*
X0054191Y0130132D01*
X0054227Y0130083D01*
X0054265Y0130037D01*
X0054307Y0129993D01*
X0054351Y0129951D01*
X0054397Y0129913D01*
X0054446Y0129877D01*
X0054497Y0129844D01*
X0054549Y0129815D01*
X0054604Y0129788D01*
X0054659Y0129765D01*
X0054716Y0129745D01*
X0054775Y0129729D01*
X0054834Y0129716D01*
X0054893Y0129707D01*
X0054954Y0129702D01*
X0055014Y0129700D01*
X0049514Y0157200D02*
X0032514Y0157200D01*
X0032454Y0157202D01*
X0032393Y0157207D01*
X0032334Y0157216D01*
X0032275Y0157229D01*
X0032216Y0157245D01*
X0032159Y0157265D01*
X0032104Y0157288D01*
X0032049Y0157315D01*
X0031997Y0157344D01*
X0031946Y0157377D01*
X0031897Y0157413D01*
X0031851Y0157451D01*
X0031807Y0157493D01*
X0031765Y0157537D01*
X0031727Y0157583D01*
X0031691Y0157632D01*
X0031658Y0157683D01*
X0031629Y0157735D01*
X0031602Y0157790D01*
X0031579Y0157845D01*
X0031559Y0157902D01*
X0031543Y0157961D01*
X0031530Y0158020D01*
X0031521Y0158079D01*
X0031516Y0158140D01*
X0031514Y0158200D01*
X0031514Y0166200D01*
X0031516Y0166260D01*
X0031521Y0166321D01*
X0031530Y0166380D01*
X0031543Y0166439D01*
X0031559Y0166498D01*
X0031579Y0166555D01*
X0031602Y0166610D01*
X0031629Y0166665D01*
X0031658Y0166717D01*
X0031691Y0166768D01*
X0031727Y0166817D01*
X0031765Y0166863D01*
X0031807Y0166907D01*
X0031851Y0166949D01*
X0031897Y0166987D01*
X0031946Y0167023D01*
X0031997Y0167056D01*
X0032049Y0167085D01*
X0032104Y0167112D01*
X0032159Y0167135D01*
X0032216Y0167155D01*
X0032275Y0167171D01*
X0032334Y0167184D01*
X0032393Y0167193D01*
X0032454Y0167198D01*
X0032514Y0167200D01*
X0049514Y0167200D01*
X0049574Y0167198D01*
X0049635Y0167193D01*
X0049694Y0167184D01*
X0049753Y0167171D01*
X0049812Y0167155D01*
X0049869Y0167135D01*
X0049924Y0167112D01*
X0049979Y0167085D01*
X0050031Y0167056D01*
X0050082Y0167023D01*
X0050131Y0166987D01*
X0050177Y0166949D01*
X0050221Y0166907D01*
X0050263Y0166863D01*
X0050301Y0166817D01*
X0050337Y0166768D01*
X0050370Y0166717D01*
X0050399Y0166665D01*
X0050426Y0166610D01*
X0050449Y0166555D01*
X0050469Y0166498D01*
X0050485Y0166439D01*
X0050498Y0166380D01*
X0050507Y0166321D01*
X0050512Y0166260D01*
X0050514Y0166200D01*
X0050514Y0158200D01*
X0050512Y0158140D01*
X0050507Y0158079D01*
X0050498Y0158020D01*
X0050485Y0157961D01*
X0050469Y0157902D01*
X0050449Y0157845D01*
X0050426Y0157790D01*
X0050399Y0157735D01*
X0050370Y0157683D01*
X0050337Y0157632D01*
X0050301Y0157583D01*
X0050263Y0157537D01*
X0050221Y0157493D01*
X0050177Y0157451D01*
X0050131Y0157413D01*
X0050082Y0157377D01*
X0050031Y0157344D01*
X0049979Y0157315D01*
X0049924Y0157288D01*
X0049869Y0157265D01*
X0049812Y0157245D01*
X0049753Y0157229D01*
X0049694Y0157216D01*
X0049635Y0157207D01*
X0049574Y0157202D01*
X0049514Y0157200D01*
X0042514Y0162200D02*
X0042014Y0162200D01*
X0040014Y0162200D02*
X0039514Y0162200D01*
X0022014Y0157200D02*
X0022012Y0157048D01*
X0022006Y0156897D01*
X0021997Y0156746D01*
X0021983Y0156594D01*
X0021966Y0156444D01*
X0021945Y0156294D01*
X0021920Y0156144D01*
X0021892Y0155995D01*
X0021859Y0155847D01*
X0021823Y0155700D01*
X0021784Y0155553D01*
X0021740Y0155408D01*
X0021693Y0155264D01*
X0021642Y0155121D01*
X0021588Y0154980D01*
X0021530Y0154839D01*
X0021469Y0154701D01*
X0021404Y0154564D01*
X0021335Y0154428D01*
X0021264Y0154295D01*
X0021189Y0154163D01*
X0021110Y0154033D01*
X0021029Y0153906D01*
X0020944Y0153780D01*
X0020856Y0153656D01*
X0020765Y0153535D01*
X0020671Y0153416D01*
X0020573Y0153300D01*
X0020473Y0153186D01*
X0020371Y0153074D01*
X0020265Y0152966D01*
X0020157Y0152860D01*
X0020046Y0152756D01*
X0019932Y0152656D01*
X0019816Y0152558D01*
X0019697Y0152464D01*
X0010014Y0157200D02*
X0010016Y0157354D01*
X0010022Y0157508D01*
X0010032Y0157662D01*
X0010046Y0157816D01*
X0010063Y0157969D01*
X0010085Y0158121D01*
X0010111Y0158273D01*
X0010140Y0158425D01*
X0010174Y0158575D01*
X0010211Y0158725D01*
X0010252Y0158873D01*
X0010297Y0159021D01*
X0010346Y0159167D01*
X0010398Y0159312D01*
X0010454Y0159455D01*
X0010514Y0159598D01*
X0010577Y0159738D01*
X0010644Y0159877D01*
X0010715Y0160014D01*
X0010789Y0160149D01*
X0010866Y0160282D01*
X0010947Y0160414D01*
X0011031Y0160543D01*
X0011119Y0160670D01*
X0011210Y0160794D01*
X0011303Y0160916D01*
X0011401Y0161036D01*
X0011501Y0161153D01*
X0011604Y0161268D01*
X0011710Y0161380D01*
X0011818Y0161489D01*
X0011930Y0161595D01*
X0012044Y0161699D01*
X0012161Y0161799D01*
X0012280Y0161897D01*
X0012402Y0161991D01*
X0012527Y0162082D01*
X0010014Y0157200D02*
X0010016Y0157050D01*
X0010022Y0156899D01*
X0010031Y0156749D01*
X0010044Y0156600D01*
X0010061Y0156450D01*
X0010082Y0156301D01*
X0010106Y0156153D01*
X0010134Y0156005D01*
X0010166Y0155858D01*
X0010201Y0155712D01*
X0010241Y0155567D01*
X0010283Y0155423D01*
X0010330Y0155280D01*
X0010380Y0155138D01*
X0010433Y0154997D01*
X0010490Y0154858D01*
X0010550Y0154720D01*
X0010614Y0154584D01*
X0010681Y0154450D01*
X0010752Y0154317D01*
X0010826Y0154186D01*
X0010903Y0154057D01*
X0010984Y0153930D01*
X0011067Y0153805D01*
X0011154Y0153682D01*
X0011243Y0153561D01*
X0011336Y0153443D01*
X0011432Y0153327D01*
X0011530Y0153213D01*
X0011631Y0153102D01*
X0011736Y0152993D01*
X0011842Y0152888D01*
X0011952Y0152784D01*
X0012064Y0152684D01*
X0012178Y0152586D01*
X0012295Y0152492D01*
X0012414Y0152400D01*
X0022014Y0157200D02*
X0022012Y0157352D01*
X0022006Y0157503D01*
X0021997Y0157654D01*
X0021983Y0157806D01*
X0021966Y0157956D01*
X0021945Y0158106D01*
X0021920Y0158256D01*
X0021892Y0158405D01*
X0021859Y0158553D01*
X0021823Y0158700D01*
X0021784Y0158847D01*
X0021740Y0158992D01*
X0021693Y0159136D01*
X0021642Y0159279D01*
X0021588Y0159420D01*
X0021530Y0159561D01*
X0021469Y0159699D01*
X0021404Y0159836D01*
X0021335Y0159972D01*
X0021264Y0160105D01*
X0021189Y0160237D01*
X0021110Y0160367D01*
X0021029Y0160494D01*
X0020944Y0160620D01*
X0020856Y0160744D01*
X0020765Y0160865D01*
X0020671Y0160984D01*
X0020573Y0161100D01*
X0020473Y0161214D01*
X0020371Y0161326D01*
X0020265Y0161434D01*
X0020157Y0161540D01*
X0020046Y0161644D01*
X0019932Y0161744D01*
X0019816Y0161842D01*
X0019697Y0161936D01*
X0066314Y0178568D02*
X0067381Y0177500D01*
X0069517Y0177500D01*
X0070584Y0178568D01*
X0072759Y0178568D02*
X0073827Y0179635D01*
X0077030Y0179635D01*
X0077030Y0180703D02*
X0077030Y0177500D01*
X0073827Y0177500D01*
X0072759Y0178568D01*
X0073827Y0181770D02*
X0075962Y0181770D01*
X0077030Y0180703D01*
X0079205Y0181770D02*
X0079205Y0177500D01*
X0083475Y0177500D02*
X0083475Y0180703D01*
X0082408Y0181770D01*
X0079205Y0181770D01*
X0070584Y0182838D02*
X0069517Y0183905D01*
X0067381Y0183905D01*
X0066314Y0182838D01*
X0066314Y0178568D01*
X0092096Y0177500D02*
X0092096Y0181770D01*
X0094231Y0183905D01*
X0096366Y0181770D01*
X0096366Y0177500D01*
X0098541Y0178568D02*
X0099609Y0177500D01*
X0102812Y0177500D01*
X0102812Y0176432D02*
X0101744Y0175365D01*
X0100676Y0175365D01*
X0098541Y0178568D02*
X0098541Y0181770D01*
X0096366Y0180703D02*
X0092096Y0180703D01*
X0102812Y0181770D02*
X0102812Y0176432D01*
X0104987Y0178568D02*
X0106054Y0177500D01*
X0109257Y0177500D01*
X0109257Y0176432D02*
X0108189Y0175365D01*
X0107122Y0175365D01*
X0109257Y0176432D02*
X0109257Y0181770D01*
X0106054Y0181770D01*
X0104987Y0180703D01*
X0104987Y0178568D01*
X0111432Y0178568D02*
X0111432Y0180703D01*
X0112500Y0181770D01*
X0114635Y0181770D01*
X0115703Y0180703D01*
X0115703Y0179635D01*
X0111432Y0179635D01*
X0111432Y0178568D02*
X0112500Y0177500D01*
X0114635Y0177500D01*
X0117878Y0177500D02*
X0117878Y0181770D01*
X0121080Y0181770D01*
X0122148Y0180703D01*
X0122148Y0177500D01*
X0130769Y0178568D02*
X0131836Y0177500D01*
X0133971Y0177500D01*
X0135039Y0178568D01*
X0135039Y0179635D01*
X0133971Y0180703D01*
X0131836Y0180703D01*
X0130769Y0181770D01*
X0130769Y0182838D01*
X0131836Y0183905D01*
X0133971Y0183905D01*
X0135039Y0182838D01*
X0137214Y0181770D02*
X0140417Y0181770D01*
X0141485Y0180703D01*
X0141485Y0178568D01*
X0140417Y0177500D01*
X0137214Y0177500D01*
X0137214Y0175365D02*
X0137214Y0181770D01*
X0143660Y0180703D02*
X0147930Y0180703D01*
X0150105Y0182838D02*
X0151173Y0183905D01*
X0153308Y0183905D01*
X0154376Y0182838D01*
X0154376Y0181770D01*
X0150105Y0177500D01*
X0154376Y0177500D01*
X0156551Y0178568D02*
X0160821Y0182838D01*
X0160821Y0178568D01*
X0159753Y0177500D01*
X0157618Y0177500D01*
X0156551Y0178568D01*
X0156551Y0182838D01*
X0157618Y0183905D01*
X0159753Y0183905D01*
X0160821Y0182838D01*
X0161014Y0182700D02*
X0161514Y0183200D01*
X0180514Y0183200D01*
X0181014Y0182700D01*
X0182514Y0182700D01*
X0182574Y0182702D01*
X0182635Y0182707D01*
X0182694Y0182716D01*
X0182753Y0182729D01*
X0182812Y0182745D01*
X0182869Y0182765D01*
X0182924Y0182788D01*
X0182979Y0182815D01*
X0183031Y0182844D01*
X0183082Y0182877D01*
X0183131Y0182913D01*
X0183177Y0182951D01*
X0183221Y0182993D01*
X0183263Y0183037D01*
X0183301Y0183083D01*
X0183337Y0183132D01*
X0183370Y0183183D01*
X0183399Y0183235D01*
X0183426Y0183290D01*
X0183449Y0183345D01*
X0183469Y0183402D01*
X0183485Y0183461D01*
X0183498Y0183520D01*
X0183507Y0183579D01*
X0183512Y0183640D01*
X0183514Y0183700D01*
X0183514Y0190700D01*
X0183512Y0190760D01*
X0183507Y0190821D01*
X0183498Y0190880D01*
X0183485Y0190939D01*
X0183469Y0190998D01*
X0183449Y0191055D01*
X0183426Y0191110D01*
X0183399Y0191165D01*
X0183370Y0191217D01*
X0183337Y0191268D01*
X0183301Y0191317D01*
X0183263Y0191363D01*
X0183221Y0191407D01*
X0183177Y0191449D01*
X0183131Y0191487D01*
X0183082Y0191523D01*
X0183031Y0191556D01*
X0182979Y0191585D01*
X0182924Y0191612D01*
X0182869Y0191635D01*
X0182812Y0191655D01*
X0182753Y0191671D01*
X0182694Y0191684D01*
X0182635Y0191693D01*
X0182574Y0191698D01*
X0182514Y0191700D01*
X0181014Y0191700D01*
X0180514Y0191200D01*
X0161514Y0191200D01*
X0161014Y0191700D01*
X0159514Y0191700D01*
X0159454Y0191698D01*
X0159393Y0191693D01*
X0159334Y0191684D01*
X0159275Y0191671D01*
X0159216Y0191655D01*
X0159159Y0191635D01*
X0159104Y0191612D01*
X0159049Y0191585D01*
X0158997Y0191556D01*
X0158946Y0191523D01*
X0158897Y0191487D01*
X0158851Y0191449D01*
X0158807Y0191407D01*
X0158765Y0191363D01*
X0158727Y0191317D01*
X0158691Y0191268D01*
X0158658Y0191217D01*
X0158629Y0191165D01*
X0158602Y0191110D01*
X0158579Y0191055D01*
X0158559Y0190998D01*
X0158543Y0190939D01*
X0158530Y0190880D01*
X0158521Y0190821D01*
X0158516Y0190760D01*
X0158514Y0190700D01*
X0158514Y0183700D01*
X0158516Y0183640D01*
X0158521Y0183579D01*
X0158530Y0183520D01*
X0158543Y0183461D01*
X0158559Y0183402D01*
X0158579Y0183345D01*
X0158602Y0183290D01*
X0158629Y0183235D01*
X0158658Y0183183D01*
X0158691Y0183132D01*
X0158727Y0183083D01*
X0158765Y0183037D01*
X0158807Y0182993D01*
X0158851Y0182951D01*
X0158897Y0182913D01*
X0158946Y0182877D01*
X0158997Y0182844D01*
X0159049Y0182815D01*
X0159104Y0182788D01*
X0159159Y0182765D01*
X0159216Y0182745D01*
X0159275Y0182729D01*
X0159334Y0182716D01*
X0159393Y0182707D01*
X0159454Y0182702D01*
X0159514Y0182700D01*
X0161014Y0182700D01*
X0162996Y0181770D02*
X0165131Y0183905D01*
X0165131Y0177500D01*
X0162996Y0177500D02*
X0167267Y0177500D01*
X0169442Y0178568D02*
X0169442Y0180703D01*
X0172644Y0180703D01*
X0173712Y0179635D01*
X0173712Y0178568D01*
X0172644Y0177500D01*
X0170509Y0177500D01*
X0169442Y0178568D01*
X0169442Y0180703D02*
X0171577Y0182838D01*
X0173712Y0183905D01*
X0202014Y0172200D02*
X0202012Y0172046D01*
X0202006Y0171892D01*
X0201996Y0171738D01*
X0201982Y0171584D01*
X0201965Y0171431D01*
X0201943Y0171279D01*
X0201917Y0171127D01*
X0201888Y0170975D01*
X0201854Y0170825D01*
X0201817Y0170675D01*
X0201776Y0170527D01*
X0201731Y0170379D01*
X0201682Y0170233D01*
X0201630Y0170088D01*
X0201574Y0169945D01*
X0201514Y0169802D01*
X0201451Y0169662D01*
X0201384Y0169523D01*
X0201313Y0169386D01*
X0201239Y0169251D01*
X0201162Y0169118D01*
X0201081Y0168986D01*
X0200997Y0168857D01*
X0200909Y0168730D01*
X0200818Y0168606D01*
X0200725Y0168484D01*
X0200627Y0168364D01*
X0200527Y0168247D01*
X0200424Y0168132D01*
X0200318Y0168020D01*
X0200210Y0167911D01*
X0200098Y0167805D01*
X0199984Y0167701D01*
X0199867Y0167601D01*
X0199748Y0167503D01*
X0199626Y0167409D01*
X0199501Y0167318D01*
X0190014Y0172200D02*
X0190016Y0172352D01*
X0190022Y0172503D01*
X0190031Y0172654D01*
X0190045Y0172806D01*
X0190062Y0172956D01*
X0190083Y0173106D01*
X0190108Y0173256D01*
X0190136Y0173405D01*
X0190169Y0173553D01*
X0190205Y0173700D01*
X0190244Y0173847D01*
X0190288Y0173992D01*
X0190335Y0174136D01*
X0190386Y0174279D01*
X0190440Y0174420D01*
X0190498Y0174561D01*
X0190559Y0174699D01*
X0190624Y0174836D01*
X0190693Y0174972D01*
X0190764Y0175105D01*
X0190839Y0175237D01*
X0190918Y0175367D01*
X0190999Y0175494D01*
X0191084Y0175620D01*
X0191172Y0175744D01*
X0191263Y0175865D01*
X0191357Y0175984D01*
X0191455Y0176100D01*
X0191555Y0176214D01*
X0191657Y0176326D01*
X0191763Y0176434D01*
X0191871Y0176540D01*
X0191982Y0176644D01*
X0192096Y0176744D01*
X0192212Y0176842D01*
X0192331Y0176936D01*
X0190014Y0172200D02*
X0190016Y0172048D01*
X0190022Y0171897D01*
X0190031Y0171746D01*
X0190045Y0171594D01*
X0190062Y0171444D01*
X0190083Y0171294D01*
X0190108Y0171144D01*
X0190136Y0170995D01*
X0190169Y0170847D01*
X0190205Y0170700D01*
X0190244Y0170553D01*
X0190288Y0170408D01*
X0190335Y0170264D01*
X0190386Y0170121D01*
X0190440Y0169980D01*
X0190498Y0169839D01*
X0190559Y0169701D01*
X0190624Y0169564D01*
X0190693Y0169428D01*
X0190764Y0169295D01*
X0190839Y0169163D01*
X0190918Y0169033D01*
X0190999Y0168906D01*
X0191084Y0168780D01*
X0191172Y0168656D01*
X0191263Y0168535D01*
X0191357Y0168416D01*
X0191455Y0168300D01*
X0191555Y0168186D01*
X0191657Y0168074D01*
X0191763Y0167966D01*
X0191871Y0167860D01*
X0191982Y0167756D01*
X0192096Y0167656D01*
X0192212Y0167558D01*
X0192331Y0167464D01*
X0202014Y0172200D02*
X0202012Y0172350D01*
X0202006Y0172501D01*
X0201997Y0172651D01*
X0201984Y0172800D01*
X0201967Y0172950D01*
X0201946Y0173099D01*
X0201922Y0173247D01*
X0201894Y0173395D01*
X0201862Y0173542D01*
X0201827Y0173688D01*
X0201787Y0173833D01*
X0201745Y0173977D01*
X0201698Y0174120D01*
X0201648Y0174262D01*
X0201595Y0174403D01*
X0201538Y0174542D01*
X0201478Y0174680D01*
X0201414Y0174816D01*
X0201347Y0174950D01*
X0201276Y0175083D01*
X0201202Y0175214D01*
X0201125Y0175343D01*
X0201044Y0175470D01*
X0200961Y0175595D01*
X0200874Y0175718D01*
X0200785Y0175839D01*
X0200692Y0175957D01*
X0200596Y0176073D01*
X0200498Y0176187D01*
X0200397Y0176298D01*
X0200292Y0176407D01*
X0200186Y0176512D01*
X0200076Y0176616D01*
X0199964Y0176716D01*
X0199850Y0176814D01*
X0199733Y0176908D01*
X0199614Y0177000D01*
X0170514Y0158700D02*
X0170514Y0157200D01*
X0170014Y0156700D01*
X0170014Y0137700D01*
X0170514Y0137200D01*
X0170514Y0135700D01*
X0170512Y0135640D01*
X0170507Y0135579D01*
X0170498Y0135520D01*
X0170485Y0135461D01*
X0170469Y0135402D01*
X0170449Y0135345D01*
X0170426Y0135290D01*
X0170399Y0135235D01*
X0170370Y0135183D01*
X0170337Y0135132D01*
X0170301Y0135083D01*
X0170263Y0135037D01*
X0170221Y0134993D01*
X0170177Y0134951D01*
X0170131Y0134913D01*
X0170082Y0134877D01*
X0170031Y0134844D01*
X0169979Y0134815D01*
X0169924Y0134788D01*
X0169869Y0134765D01*
X0169812Y0134745D01*
X0169753Y0134729D01*
X0169694Y0134716D01*
X0169635Y0134707D01*
X0169574Y0134702D01*
X0169514Y0134700D01*
X0162514Y0134700D01*
X0162454Y0134702D01*
X0162393Y0134707D01*
X0162334Y0134716D01*
X0162275Y0134729D01*
X0162216Y0134745D01*
X0162159Y0134765D01*
X0162104Y0134788D01*
X0162049Y0134815D01*
X0161997Y0134844D01*
X0161946Y0134877D01*
X0161897Y0134913D01*
X0161851Y0134951D01*
X0161807Y0134993D01*
X0161765Y0135037D01*
X0161727Y0135083D01*
X0161691Y0135132D01*
X0161658Y0135183D01*
X0161629Y0135235D01*
X0161602Y0135290D01*
X0161579Y0135345D01*
X0161559Y0135402D01*
X0161543Y0135461D01*
X0161530Y0135520D01*
X0161521Y0135579D01*
X0161516Y0135640D01*
X0161514Y0135700D01*
X0161514Y0137200D01*
X0162014Y0137700D01*
X0162014Y0156700D01*
X0161514Y0157200D01*
X0161514Y0158700D01*
X0161516Y0158760D01*
X0161521Y0158821D01*
X0161530Y0158880D01*
X0161543Y0158939D01*
X0161559Y0158998D01*
X0161579Y0159055D01*
X0161602Y0159110D01*
X0161629Y0159165D01*
X0161658Y0159217D01*
X0161691Y0159268D01*
X0161727Y0159317D01*
X0161765Y0159363D01*
X0161807Y0159407D01*
X0161851Y0159449D01*
X0161897Y0159487D01*
X0161946Y0159523D01*
X0161997Y0159556D01*
X0162049Y0159585D01*
X0162104Y0159612D01*
X0162159Y0159635D01*
X0162216Y0159655D01*
X0162275Y0159671D01*
X0162334Y0159684D01*
X0162393Y0159693D01*
X0162454Y0159698D01*
X0162514Y0159700D01*
X0169514Y0159700D01*
X0169574Y0159698D01*
X0169635Y0159693D01*
X0169694Y0159684D01*
X0169753Y0159671D01*
X0169812Y0159655D01*
X0169869Y0159635D01*
X0169924Y0159612D01*
X0169979Y0159585D01*
X0170031Y0159556D01*
X0170082Y0159523D01*
X0170131Y0159487D01*
X0170177Y0159449D01*
X0170221Y0159407D01*
X0170263Y0159363D01*
X0170301Y0159317D01*
X0170337Y0159268D01*
X0170370Y0159217D01*
X0170399Y0159165D01*
X0170426Y0159110D01*
X0170449Y0159055D01*
X0170469Y0158998D01*
X0170485Y0158939D01*
X0170498Y0158880D01*
X0170507Y0158821D01*
X0170512Y0158760D01*
X0170514Y0158700D01*
X0176314Y0138905D02*
X0179517Y0138905D01*
X0180584Y0137838D01*
X0180584Y0136770D01*
X0179517Y0135703D01*
X0176314Y0135703D01*
X0176314Y0138905D02*
X0176314Y0132500D01*
X0179517Y0132500D01*
X0180584Y0133568D01*
X0180584Y0134635D01*
X0179517Y0135703D01*
X0182759Y0136770D02*
X0184894Y0138905D01*
X0184894Y0132500D01*
X0182759Y0132500D02*
X0187030Y0132500D01*
X0189205Y0133568D02*
X0190272Y0132500D01*
X0192408Y0132500D01*
X0193475Y0133568D01*
X0193475Y0135703D01*
X0192408Y0136770D01*
X0191340Y0136770D01*
X0189205Y0135703D01*
X0189205Y0138905D01*
X0193475Y0138905D01*
X0192408Y0128905D02*
X0189205Y0125703D01*
X0193475Y0125703D01*
X0192408Y0128905D02*
X0192408Y0122500D01*
X0192408Y0118905D02*
X0190272Y0118905D01*
X0189205Y0117838D01*
X0191340Y0115703D02*
X0192408Y0115703D01*
X0193475Y0114635D01*
X0193475Y0113568D01*
X0192408Y0112500D01*
X0190272Y0112500D01*
X0189205Y0113568D01*
X0187030Y0112500D02*
X0182759Y0112500D01*
X0184894Y0112500D02*
X0184894Y0118905D01*
X0182759Y0116770D01*
X0180584Y0116770D02*
X0179517Y0115703D01*
X0176314Y0115703D01*
X0175014Y0115200D02*
X0175014Y0100700D01*
X0172014Y0097700D01*
X0160014Y0097700D01*
X0157014Y0100700D01*
X0157014Y0115200D01*
X0157016Y0115276D01*
X0157022Y0115352D01*
X0157031Y0115427D01*
X0157045Y0115502D01*
X0157062Y0115576D01*
X0157083Y0115649D01*
X0157107Y0115721D01*
X0157136Y0115792D01*
X0157167Y0115861D01*
X0157202Y0115928D01*
X0157241Y0115993D01*
X0157283Y0116057D01*
X0157328Y0116118D01*
X0157376Y0116177D01*
X0157427Y0116233D01*
X0157481Y0116287D01*
X0157537Y0116338D01*
X0157596Y0116386D01*
X0157657Y0116431D01*
X0157721Y0116473D01*
X0157786Y0116512D01*
X0157853Y0116547D01*
X0157922Y0116578D01*
X0157993Y0116607D01*
X0158065Y0116631D01*
X0158138Y0116652D01*
X0158212Y0116669D01*
X0158287Y0116683D01*
X0158362Y0116692D01*
X0158438Y0116698D01*
X0158514Y0116700D01*
X0173514Y0116700D01*
X0173590Y0116698D01*
X0173666Y0116692D01*
X0173741Y0116683D01*
X0173816Y0116669D01*
X0173890Y0116652D01*
X0173963Y0116631D01*
X0174035Y0116607D01*
X0174106Y0116578D01*
X0174175Y0116547D01*
X0174242Y0116512D01*
X0174307Y0116473D01*
X0174371Y0116431D01*
X0174432Y0116386D01*
X0174491Y0116338D01*
X0174547Y0116287D01*
X0174601Y0116233D01*
X0174652Y0116177D01*
X0174700Y0116118D01*
X0174745Y0116057D01*
X0174787Y0115993D01*
X0174826Y0115928D01*
X0174861Y0115861D01*
X0174892Y0115792D01*
X0174921Y0115721D01*
X0174945Y0115649D01*
X0174966Y0115576D01*
X0174983Y0115502D01*
X0174997Y0115427D01*
X0175006Y0115352D01*
X0175012Y0115276D01*
X0175014Y0115200D01*
X0176314Y0112500D02*
X0179517Y0112500D01*
X0180584Y0113568D01*
X0180584Y0114635D01*
X0179517Y0115703D01*
X0180584Y0116770D02*
X0180584Y0117838D01*
X0179517Y0118905D01*
X0176314Y0118905D01*
X0176314Y0112500D01*
X0181314Y0108905D02*
X0184517Y0108905D01*
X0185584Y0107838D01*
X0185584Y0106770D01*
X0184517Y0105703D01*
X0181314Y0105703D01*
X0184517Y0105703D02*
X0185584Y0104635D01*
X0185584Y0103568D01*
X0184517Y0102500D01*
X0181314Y0102500D01*
X0181314Y0108905D01*
X0187759Y0107838D02*
X0187759Y0106770D01*
X0188827Y0105703D01*
X0192030Y0105703D01*
X0192030Y0103568D02*
X0192030Y0107838D01*
X0190962Y0108905D01*
X0188827Y0108905D01*
X0187759Y0107838D01*
X0187759Y0103568D02*
X0188827Y0102500D01*
X0190962Y0102500D01*
X0192030Y0103568D01*
X0190962Y0098905D02*
X0188827Y0098905D01*
X0187759Y0097838D01*
X0187759Y0096770D01*
X0188827Y0095703D01*
X0190962Y0095703D01*
X0192030Y0094635D01*
X0192030Y0093568D01*
X0190962Y0092500D01*
X0188827Y0092500D01*
X0187759Y0093568D01*
X0187759Y0094635D01*
X0188827Y0095703D01*
X0190962Y0095703D02*
X0192030Y0096770D01*
X0192030Y0097838D01*
X0190962Y0098905D01*
X0185584Y0097838D02*
X0185584Y0096770D01*
X0184517Y0095703D01*
X0181314Y0095703D01*
X0184517Y0095703D02*
X0185584Y0094635D01*
X0185584Y0093568D01*
X0184517Y0092500D01*
X0181314Y0092500D01*
X0181314Y0098905D01*
X0184517Y0098905D01*
X0185584Y0097838D01*
X0184517Y0088905D02*
X0181314Y0088905D01*
X0181314Y0082500D01*
X0184517Y0082500D01*
X0185584Y0083568D01*
X0185584Y0084635D01*
X0184517Y0085703D01*
X0181314Y0085703D01*
X0184517Y0085703D02*
X0185584Y0086770D01*
X0185584Y0087838D01*
X0184517Y0088905D01*
X0187759Y0088905D02*
X0192030Y0088905D01*
X0192030Y0087838D01*
X0187759Y0083568D01*
X0187759Y0082500D01*
X0187759Y0078905D02*
X0187759Y0074635D01*
X0189894Y0072500D01*
X0192030Y0074635D01*
X0192030Y0078905D01*
X0185584Y0078905D02*
X0181314Y0078905D01*
X0181314Y0075703D01*
X0183449Y0076770D01*
X0184517Y0076770D01*
X0185584Y0075703D01*
X0185584Y0073568D01*
X0184517Y0072500D01*
X0182381Y0072500D01*
X0181314Y0073568D01*
X0182030Y0068905D02*
X0182030Y0062500D01*
X0177759Y0068905D01*
X0177759Y0062500D01*
X0175584Y0063568D02*
X0175584Y0065703D01*
X0173449Y0065703D01*
X0175584Y0067838D02*
X0174517Y0068905D01*
X0172381Y0068905D01*
X0171314Y0067838D01*
X0171314Y0063568D01*
X0172381Y0062500D01*
X0174517Y0062500D01*
X0175584Y0063568D01*
X0184205Y0062500D02*
X0187408Y0062500D01*
X0188475Y0063568D01*
X0188475Y0067838D01*
X0187408Y0068905D01*
X0184205Y0068905D01*
X0184205Y0062500D01*
X0160614Y0098900D02*
X0160614Y0101500D01*
X0159414Y0100200D02*
X0161914Y0100200D01*
X0176314Y0122500D02*
X0179517Y0122500D01*
X0180584Y0123568D01*
X0180584Y0124635D01*
X0179517Y0125703D01*
X0176314Y0125703D01*
X0176314Y0128905D02*
X0176314Y0122500D01*
X0179517Y0125703D02*
X0180584Y0126770D01*
X0180584Y0127838D01*
X0179517Y0128905D01*
X0176314Y0128905D01*
X0182759Y0126770D02*
X0184894Y0128905D01*
X0184894Y0122500D01*
X0182759Y0122500D02*
X0187030Y0122500D01*
X0192408Y0118905D02*
X0193475Y0117838D01*
X0193475Y0116770D01*
X0192408Y0115703D01*
D11*
X0011014Y0182200D02*
X0006014Y0187200D01*
X0006014Y0177200D01*
X0011014Y0182200D01*
X0010382Y0182832D02*
X0006014Y0182832D01*
X0006014Y0184430D02*
X0008783Y0184430D01*
X0007185Y0186029D02*
X0006014Y0186029D01*
X0006014Y0181233D02*
X0010047Y0181233D01*
X0008449Y0179635D02*
X0006014Y0179635D01*
X0006014Y0178036D02*
X0006850Y0178036D01*
D12*
X0006014Y0002200D02*
X0202864Y0002200D01*
X0202864Y0199050D01*
X0006014Y0199050D01*
X0006014Y0002200D01*
D13*
X0048664Y0012967D02*
X0049281Y0012350D01*
X0050515Y0012350D01*
X0051133Y0012967D01*
X0051133Y0013584D01*
X0050515Y0014202D01*
X0049281Y0014202D01*
X0048664Y0014819D01*
X0048664Y0015436D01*
X0049281Y0016053D01*
X0050515Y0016053D01*
X0051133Y0015436D01*
X0052347Y0016053D02*
X0052347Y0012350D01*
X0054816Y0012350D01*
X0056030Y0012350D02*
X0056030Y0016053D01*
X0057882Y0016053D01*
X0058499Y0015436D01*
X0058499Y0012967D01*
X0057882Y0012350D01*
X0056030Y0012350D01*
X0059713Y0012350D02*
X0062182Y0012350D01*
X0060948Y0014202D02*
X0059713Y0014202D01*
X0059713Y0016053D02*
X0059713Y0012350D01*
X0059713Y0016053D02*
X0062182Y0016053D01*
X0076164Y0015436D02*
X0076164Y0014819D01*
X0076781Y0014202D01*
X0078015Y0014202D01*
X0078633Y0013584D01*
X0078633Y0012967D01*
X0078015Y0012350D01*
X0076781Y0012350D01*
X0076164Y0012967D01*
X0076164Y0015436D02*
X0076781Y0016053D01*
X0078015Y0016053D01*
X0078633Y0015436D01*
X0079847Y0016053D02*
X0079847Y0012350D01*
X0081081Y0013584D01*
X0082316Y0012350D01*
X0082316Y0016053D01*
X0083530Y0015436D02*
X0083530Y0012967D01*
X0084147Y0012350D01*
X0085382Y0012350D01*
X0085999Y0012967D01*
X0087213Y0012350D02*
X0087213Y0016053D01*
X0085999Y0015436D02*
X0085382Y0016053D01*
X0084147Y0016053D01*
X0083530Y0015436D01*
X0087213Y0014202D02*
X0089682Y0014202D01*
X0089682Y0016053D02*
X0089682Y0012350D01*
X0106164Y0022350D02*
X0106164Y0026053D01*
X0108015Y0026053D01*
X0108633Y0025436D01*
X0108633Y0024202D01*
X0108015Y0023584D01*
X0106164Y0023584D01*
X0107398Y0023584D02*
X0108633Y0022350D01*
X0109847Y0022350D02*
X0109847Y0026053D01*
X0112316Y0026053D01*
X0113530Y0025436D02*
X0113530Y0022967D01*
X0114147Y0022350D01*
X0115382Y0022350D01*
X0115999Y0022967D01*
X0115999Y0024202D01*
X0114764Y0024202D01*
X0113530Y0025436D02*
X0114147Y0026053D01*
X0115382Y0026053D01*
X0115999Y0025436D01*
X0112316Y0022350D02*
X0109847Y0022350D01*
X0109847Y0024202D02*
X0111081Y0024202D01*
D14*
X0057014Y0024200D02*
X0057014Y0027200D01*
X0057014Y0030200D01*
X0055014Y0030200D02*
X0055014Y0027200D01*
X0055014Y0024200D01*
X0034014Y0067263D02*
X0031014Y0067263D01*
X0028014Y0067263D01*
X0028014Y0069263D02*
X0031014Y0069263D01*
X0034014Y0069263D01*
X0019983Y0150254D02*
X0020152Y0150353D01*
X0020318Y0150457D01*
X0020482Y0150564D01*
X0020643Y0150675D01*
X0020801Y0150790D01*
X0020956Y0150909D01*
X0021109Y0151032D01*
X0021258Y0151158D01*
X0021404Y0151288D01*
X0021547Y0151422D01*
X0021687Y0151559D01*
X0021823Y0151699D01*
X0021956Y0151843D01*
X0022085Y0151990D01*
X0022211Y0152140D01*
X0022332Y0152293D01*
X0022451Y0152449D01*
X0022565Y0152608D01*
X0022675Y0152769D01*
X0022781Y0152934D01*
X0022884Y0153100D01*
X0022982Y0153270D01*
X0023076Y0153441D01*
X0023166Y0153615D01*
X0023251Y0153791D01*
X0023333Y0153969D01*
X0023409Y0154149D01*
X0023482Y0154331D01*
X0023550Y0154514D01*
X0023613Y0154699D01*
X0023672Y0154886D01*
X0023726Y0155074D01*
X0023776Y0155263D01*
X0023821Y0155453D01*
X0023861Y0155645D01*
X0023897Y0155837D01*
X0023928Y0156030D01*
X0023954Y0156224D01*
X0023976Y0156419D01*
X0023992Y0156614D01*
X0024004Y0156809D01*
X0024012Y0157005D01*
X0024014Y0157200D01*
X0012249Y0150141D02*
X0012081Y0150234D01*
X0011915Y0150330D01*
X0011751Y0150430D01*
X0011590Y0150535D01*
X0011431Y0150643D01*
X0011275Y0150755D01*
X0011121Y0150871D01*
X0010971Y0150990D01*
X0010823Y0151113D01*
X0010678Y0151239D01*
X0010537Y0151369D01*
X0010398Y0151502D01*
X0010263Y0151639D01*
X0010131Y0151779D01*
X0010003Y0151921D01*
X0009878Y0152067D01*
X0009756Y0152216D01*
X0009638Y0152368D01*
X0009524Y0152522D01*
X0009414Y0152680D01*
X0009307Y0152839D01*
X0009204Y0153002D01*
X0009105Y0153167D01*
X0009010Y0153334D01*
X0008920Y0153503D01*
X0008833Y0153674D01*
X0008750Y0153848D01*
X0008672Y0154023D01*
X0008598Y0154201D01*
X0008528Y0154380D01*
X0008462Y0154560D01*
X0008401Y0154742D01*
X0008344Y0154926D01*
X0008292Y0155111D01*
X0008244Y0155297D01*
X0008200Y0155484D01*
X0008161Y0155672D01*
X0008127Y0155861D01*
X0008097Y0156051D01*
X0008072Y0156241D01*
X0008051Y0156432D01*
X0008035Y0156624D01*
X0008023Y0156816D01*
X0008016Y0157008D01*
X0008014Y0157200D01*
X0021182Y0163307D02*
X0021328Y0163180D01*
X0021470Y0163051D01*
X0021610Y0162917D01*
X0021746Y0162781D01*
X0021879Y0162641D01*
X0022009Y0162498D01*
X0022135Y0162351D01*
X0022257Y0162202D01*
X0022376Y0162050D01*
X0022491Y0161895D01*
X0022603Y0161738D01*
X0022710Y0161578D01*
X0022814Y0161415D01*
X0022913Y0161249D01*
X0023009Y0161082D01*
X0023101Y0160912D01*
X0023188Y0160740D01*
X0023272Y0160566D01*
X0023351Y0160390D01*
X0023425Y0160212D01*
X0023496Y0160032D01*
X0023562Y0159851D01*
X0023624Y0159668D01*
X0023681Y0159484D01*
X0023734Y0159298D01*
X0023782Y0159111D01*
X0023826Y0158923D01*
X0023865Y0158734D01*
X0023900Y0158544D01*
X0023930Y0158354D01*
X0023956Y0158163D01*
X0023977Y0157971D01*
X0023993Y0157778D01*
X0024005Y0157586D01*
X0024012Y0157393D01*
X0024014Y0157200D01*
X0010892Y0163346D02*
X0010744Y0163219D01*
X0010599Y0163089D01*
X0010458Y0162956D01*
X0010319Y0162819D01*
X0010184Y0162679D01*
X0010053Y0162535D01*
X0009925Y0162388D01*
X0009800Y0162239D01*
X0009679Y0162086D01*
X0009562Y0161931D01*
X0009449Y0161772D01*
X0009340Y0161611D01*
X0009235Y0161447D01*
X0009133Y0161281D01*
X0009036Y0161112D01*
X0008943Y0160942D01*
X0008854Y0160768D01*
X0008769Y0160593D01*
X0008689Y0160416D01*
X0008613Y0160237D01*
X0008541Y0160056D01*
X0008474Y0159873D01*
X0008411Y0159689D01*
X0008353Y0159503D01*
X0008299Y0159316D01*
X0008250Y0159128D01*
X0008205Y0158938D01*
X0008165Y0158748D01*
X0008130Y0158556D01*
X0008099Y0158364D01*
X0008073Y0158171D01*
X0008052Y0157977D01*
X0008035Y0157783D01*
X0008023Y0157589D01*
X0008016Y0157395D01*
X0008014Y0157200D01*
X0013514Y0167200D02*
X0018514Y0167200D01*
X0040014Y0165200D02*
X0040014Y0162200D01*
X0040014Y0159200D01*
X0042014Y0159200D02*
X0042014Y0162200D01*
X0042014Y0165200D01*
X0193514Y0162200D02*
X0198514Y0162200D01*
X0204014Y0172200D02*
X0204012Y0172392D01*
X0204005Y0172584D01*
X0203993Y0172776D01*
X0203977Y0172968D01*
X0203956Y0173159D01*
X0203931Y0173349D01*
X0203901Y0173539D01*
X0203867Y0173728D01*
X0203828Y0173916D01*
X0203784Y0174103D01*
X0203736Y0174289D01*
X0203684Y0174474D01*
X0203627Y0174658D01*
X0203566Y0174840D01*
X0203500Y0175020D01*
X0203430Y0175199D01*
X0203356Y0175377D01*
X0203278Y0175552D01*
X0203195Y0175726D01*
X0203108Y0175897D01*
X0203018Y0176066D01*
X0202923Y0176233D01*
X0202824Y0176398D01*
X0202721Y0176561D01*
X0202614Y0176720D01*
X0202504Y0176878D01*
X0202390Y0177032D01*
X0202272Y0177184D01*
X0202150Y0177333D01*
X0202025Y0177479D01*
X0201897Y0177621D01*
X0201765Y0177761D01*
X0201630Y0177898D01*
X0201491Y0178031D01*
X0201350Y0178161D01*
X0201205Y0178287D01*
X0201057Y0178410D01*
X0200907Y0178529D01*
X0200753Y0178645D01*
X0200597Y0178757D01*
X0200438Y0178865D01*
X0200277Y0178970D01*
X0200113Y0179070D01*
X0199947Y0179166D01*
X0199779Y0179259D01*
X0192045Y0179146D02*
X0191876Y0179047D01*
X0191710Y0178943D01*
X0191546Y0178836D01*
X0191385Y0178725D01*
X0191227Y0178610D01*
X0191072Y0178491D01*
X0190919Y0178368D01*
X0190770Y0178242D01*
X0190624Y0178112D01*
X0190481Y0177978D01*
X0190341Y0177841D01*
X0190205Y0177701D01*
X0190072Y0177557D01*
X0189943Y0177410D01*
X0189817Y0177260D01*
X0189696Y0177107D01*
X0189577Y0176951D01*
X0189463Y0176792D01*
X0189353Y0176631D01*
X0189247Y0176466D01*
X0189144Y0176300D01*
X0189046Y0176130D01*
X0188952Y0175959D01*
X0188862Y0175785D01*
X0188777Y0175609D01*
X0188695Y0175431D01*
X0188619Y0175251D01*
X0188546Y0175069D01*
X0188478Y0174886D01*
X0188415Y0174701D01*
X0188356Y0174514D01*
X0188302Y0174326D01*
X0188252Y0174137D01*
X0188207Y0173947D01*
X0188167Y0173755D01*
X0188131Y0173563D01*
X0188100Y0173370D01*
X0188074Y0173176D01*
X0188052Y0172981D01*
X0188036Y0172786D01*
X0188024Y0172591D01*
X0188016Y0172395D01*
X0188014Y0172200D01*
X0188016Y0172007D01*
X0188023Y0171814D01*
X0188035Y0171622D01*
X0188051Y0171429D01*
X0188072Y0171237D01*
X0188098Y0171046D01*
X0188128Y0170856D01*
X0188163Y0170666D01*
X0188202Y0170477D01*
X0188246Y0170289D01*
X0188294Y0170102D01*
X0188347Y0169916D01*
X0188404Y0169732D01*
X0188466Y0169549D01*
X0188532Y0169368D01*
X0188603Y0169188D01*
X0188677Y0169010D01*
X0188756Y0168834D01*
X0188840Y0168660D01*
X0188927Y0168488D01*
X0189019Y0168318D01*
X0189115Y0168151D01*
X0189214Y0167985D01*
X0189318Y0167822D01*
X0189425Y0167662D01*
X0189537Y0167505D01*
X0189652Y0167350D01*
X0189771Y0167198D01*
X0189893Y0167049D01*
X0190019Y0166902D01*
X0190149Y0166759D01*
X0190282Y0166619D01*
X0190418Y0166483D01*
X0190558Y0166349D01*
X0190700Y0166220D01*
X0190846Y0166093D01*
X0201136Y0166054D02*
X0201284Y0166181D01*
X0201429Y0166311D01*
X0201570Y0166444D01*
X0201709Y0166581D01*
X0201844Y0166721D01*
X0201975Y0166865D01*
X0202103Y0167012D01*
X0202228Y0167161D01*
X0202349Y0167314D01*
X0202466Y0167469D01*
X0202579Y0167628D01*
X0202688Y0167789D01*
X0202793Y0167953D01*
X0202895Y0168119D01*
X0202992Y0168288D01*
X0203085Y0168458D01*
X0203174Y0168632D01*
X0203259Y0168807D01*
X0203339Y0168984D01*
X0203415Y0169163D01*
X0203487Y0169344D01*
X0203554Y0169527D01*
X0203617Y0169711D01*
X0203675Y0169897D01*
X0203729Y0170084D01*
X0203778Y0170272D01*
X0203823Y0170462D01*
X0203863Y0170652D01*
X0203898Y0170844D01*
X0203929Y0171036D01*
X0203955Y0171229D01*
X0203976Y0171423D01*
X0203993Y0171617D01*
X0204005Y0171811D01*
X0204012Y0172005D01*
X0204014Y0172200D01*
D15*
X0199135Y0163365D02*
X0199135Y0162615D01*
X0200637Y0161113D01*
X0202138Y0161113D02*
X0199135Y0161113D01*
X0199135Y0159512D02*
X0201387Y0159512D01*
X0202138Y0158761D01*
X0201387Y0158011D01*
X0202138Y0157260D01*
X0201387Y0156509D01*
X0199135Y0156509D01*
X0199886Y0154908D02*
X0199135Y0154157D01*
X0199135Y0151906D01*
X0203639Y0151906D01*
X0202138Y0151906D02*
X0202138Y0154157D01*
X0201387Y0154908D01*
X0199886Y0154908D01*
X0173824Y0184950D02*
X0171572Y0186451D01*
X0173824Y0187953D01*
X0171572Y0189454D02*
X0171572Y0184950D01*
X0169970Y0185701D02*
X0169220Y0184950D01*
X0167718Y0184950D01*
X0166968Y0185701D01*
X0169970Y0188703D01*
X0169970Y0185701D01*
X0169970Y0188703D02*
X0169220Y0189454D01*
X0167718Y0189454D01*
X0166968Y0188703D01*
X0166968Y0185701D01*
X0165366Y0184950D02*
X0162364Y0184950D01*
X0163865Y0184950D02*
X0163865Y0189454D01*
X0162364Y0187953D01*
X0164511Y0150760D02*
X0163760Y0150010D01*
X0163760Y0148508D01*
X0164511Y0147758D01*
X0167513Y0147758D01*
X0164511Y0150760D01*
X0167513Y0150760D01*
X0168264Y0150010D01*
X0168264Y0148508D01*
X0167513Y0147758D01*
X0167513Y0146156D02*
X0168264Y0145406D01*
X0168264Y0143905D01*
X0167513Y0143154D01*
X0167513Y0141553D02*
X0168264Y0140802D01*
X0168264Y0139301D01*
X0167513Y0138550D01*
X0166012Y0140051D02*
X0166012Y0140802D01*
X0166763Y0141553D01*
X0167513Y0141553D01*
X0166012Y0140802D02*
X0165261Y0141553D01*
X0164511Y0141553D01*
X0163760Y0140802D01*
X0163760Y0139301D01*
X0164511Y0138550D01*
X0164511Y0143154D02*
X0163760Y0143905D01*
X0163760Y0145406D01*
X0164511Y0146156D01*
X0165261Y0146156D01*
X0166012Y0145406D01*
X0166763Y0146156D01*
X0167513Y0146156D01*
X0166012Y0145406D02*
X0166012Y0144655D01*
X0162704Y0095954D02*
X0161203Y0095954D01*
X0160452Y0095203D01*
X0160452Y0092201D01*
X0163455Y0095203D01*
X0163455Y0092201D01*
X0162704Y0091450D01*
X0161203Y0091450D01*
X0160452Y0092201D01*
X0158851Y0091450D02*
X0155848Y0091450D01*
X0157349Y0091450D02*
X0157349Y0095954D01*
X0155848Y0094453D01*
X0162704Y0095954D02*
X0163455Y0095203D01*
X0165807Y0093702D02*
X0165807Y0092201D01*
X0165807Y0090699D01*
X0165056Y0089949D01*
X0166557Y0091450D02*
X0165807Y0092201D01*
X0166557Y0091450D02*
X0167308Y0091450D01*
X0168058Y0092201D01*
X0168058Y0093702D01*
X0169660Y0093702D02*
X0171161Y0093702D01*
X0169660Y0091450D02*
X0169660Y0095954D01*
X0172662Y0095954D01*
X0096284Y0051328D02*
X0093282Y0051328D01*
X0093282Y0046824D01*
X0091680Y0047575D02*
X0091680Y0049076D01*
X0091680Y0047575D02*
X0090930Y0046824D01*
X0090179Y0046824D01*
X0089429Y0047575D01*
X0089429Y0046073D01*
X0088678Y0045323D01*
X0089429Y0047575D02*
X0089429Y0049076D01*
X0087077Y0050577D02*
X0087077Y0047575D01*
X0086326Y0046824D01*
X0084825Y0046824D01*
X0084074Y0047575D01*
X0087077Y0050577D01*
X0086326Y0051328D01*
X0084825Y0051328D01*
X0084074Y0050577D01*
X0084074Y0047575D01*
X0082473Y0046824D02*
X0079470Y0046824D01*
X0080971Y0046824D02*
X0080971Y0051328D01*
X0079470Y0049827D01*
X0093282Y0049076D02*
X0094783Y0049076D01*
X0063662Y0037954D02*
X0060660Y0037954D01*
X0060660Y0033450D01*
X0059058Y0034201D02*
X0059058Y0035702D01*
X0059058Y0034201D02*
X0058308Y0033450D01*
X0057557Y0033450D01*
X0056807Y0034201D01*
X0056807Y0032699D01*
X0056056Y0031949D01*
X0054455Y0033450D02*
X0051452Y0033450D01*
X0052953Y0033450D02*
X0052953Y0037954D01*
X0051452Y0036453D01*
X0049901Y0034201D02*
X0049150Y0034201D01*
X0049150Y0033450D01*
X0049901Y0033450D01*
X0049901Y0034201D01*
X0047549Y0034201D02*
X0046798Y0033450D01*
X0045297Y0033450D01*
X0044546Y0034201D01*
X0047549Y0037203D01*
X0047549Y0034201D01*
X0047549Y0037203D02*
X0046798Y0037954D01*
X0045297Y0037954D01*
X0044546Y0037203D01*
X0044546Y0034201D01*
X0036683Y0042554D02*
X0001250Y0042554D01*
X0001250Y0011846D01*
X0036683Y0011846D01*
X0036683Y0042554D01*
X0038774Y0051012D02*
X0039524Y0051762D01*
X0039524Y0053264D01*
X0040275Y0052513D01*
X0041026Y0052513D01*
X0041776Y0053264D01*
X0041776Y0054765D01*
X0043378Y0054765D02*
X0044879Y0054765D01*
X0043378Y0057017D02*
X0046380Y0057017D01*
X0043378Y0057017D02*
X0043378Y0052513D01*
X0039524Y0053264D02*
X0039524Y0054765D01*
X0037172Y0052513D02*
X0034170Y0052513D01*
X0035671Y0052513D02*
X0035671Y0057017D01*
X0034170Y0055516D01*
X0032618Y0053264D02*
X0032618Y0052513D01*
X0031868Y0052513D01*
X0031868Y0053264D01*
X0032618Y0053264D01*
X0030266Y0053264D02*
X0030266Y0056266D01*
X0027264Y0053264D01*
X0028014Y0052513D01*
X0029516Y0052513D01*
X0030266Y0053264D01*
X0030266Y0056266D02*
X0029516Y0057017D01*
X0028014Y0057017D01*
X0027264Y0056266D01*
X0027264Y0053264D01*
X0018967Y0033106D02*
X0003219Y0035074D01*
X0003219Y0039011D01*
X0003219Y0032121D02*
X0022904Y0030153D01*
X0022904Y0024247D01*
X0003219Y0022279D01*
X0003219Y0019326D02*
X0020935Y0021294D01*
X0020935Y0013420D02*
X0003219Y0015389D01*
X0003219Y0019326D01*
X0051329Y0011137D02*
X0051329Y0003263D01*
X0090699Y0003263D01*
X0090699Y0011137D01*
X0051329Y0011137D01*
X0063140Y0007200D02*
X0063140Y0015074D01*
X0065108Y0013106D02*
X0065108Y0017043D01*
X0072982Y0017043D01*
X0072982Y0013106D01*
X0071014Y0015074D02*
X0071014Y0007200D01*
X0078888Y0007200D02*
X0078888Y0015074D01*
X0062161Y0035702D02*
X0060660Y0035702D01*
X0056807Y0035702D02*
X0056807Y0034201D01*
X0053264Y0068306D02*
X0053264Y0071308D01*
X0053264Y0069807D02*
X0048760Y0069807D01*
X0050261Y0068306D01*
X0049511Y0072909D02*
X0048760Y0073660D01*
X0048760Y0075161D01*
X0049511Y0075912D01*
X0052513Y0072909D01*
X0053264Y0073660D01*
X0053264Y0075161D01*
X0052513Y0075912D01*
X0049511Y0075912D01*
X0048760Y0077513D02*
X0053264Y0077513D01*
X0051762Y0077513D02*
X0050261Y0079765D01*
X0051762Y0077513D02*
X0053264Y0079765D01*
X0052513Y0072909D02*
X0049511Y0072909D01*
X0057011Y0137538D02*
X0056260Y0138289D01*
X0056260Y0139790D01*
X0057011Y0140541D01*
X0057761Y0140541D01*
X0058512Y0139790D01*
X0059262Y0140541D01*
X0060013Y0140541D01*
X0060764Y0139790D01*
X0060764Y0138289D01*
X0060013Y0137538D01*
X0058512Y0139039D02*
X0058512Y0139790D01*
X0060013Y0142142D02*
X0060764Y0142893D01*
X0060764Y0144394D01*
X0060013Y0145145D01*
X0059262Y0145145D01*
X0058512Y0144394D01*
X0058512Y0143643D01*
X0058512Y0144394D02*
X0057761Y0145145D01*
X0057011Y0145145D01*
X0056260Y0144394D01*
X0056260Y0142893D01*
X0057011Y0142142D01*
X0057011Y0146746D02*
X0056260Y0147497D01*
X0056260Y0148998D01*
X0057011Y0149749D01*
X0060013Y0146746D01*
X0060764Y0147497D01*
X0060764Y0148998D01*
X0060013Y0149749D01*
X0057011Y0149749D01*
X0057011Y0146746D02*
X0060013Y0146746D01*
X0049879Y0153702D02*
X0048378Y0153702D01*
X0046776Y0153702D02*
X0046776Y0152201D01*
X0046026Y0151450D01*
X0045275Y0151450D01*
X0044524Y0152201D01*
X0044524Y0150699D01*
X0043774Y0149949D01*
X0042172Y0151450D02*
X0039170Y0151450D01*
X0040671Y0151450D02*
X0040671Y0155954D01*
X0039170Y0154453D01*
X0037618Y0152201D02*
X0037618Y0151450D01*
X0036868Y0151450D01*
X0036868Y0152201D01*
X0037618Y0152201D01*
X0035266Y0152201D02*
X0034516Y0151450D01*
X0033014Y0151450D01*
X0032264Y0152201D01*
X0035266Y0155203D01*
X0035266Y0152201D01*
X0035266Y0155203D02*
X0034516Y0155954D01*
X0033014Y0155954D01*
X0032264Y0155203D01*
X0032264Y0152201D01*
X0044524Y0152201D02*
X0044524Y0153702D01*
X0048378Y0151450D02*
X0048378Y0155954D01*
X0051380Y0155954D01*
X0010453Y0165701D02*
X0010453Y0167953D01*
X0007450Y0167953D01*
X0008201Y0169554D02*
X0007450Y0170305D01*
X0007450Y0172556D01*
X0007450Y0174158D02*
X0010453Y0174158D01*
X0008951Y0174158D02*
X0007450Y0175659D01*
X0007450Y0176410D01*
X0009702Y0172556D02*
X0008951Y0171806D01*
X0008951Y0170305D01*
X0008201Y0169554D01*
X0010453Y0171806D02*
X0009702Y0172556D01*
X0010453Y0171806D02*
X0010453Y0169554D01*
X0010453Y0165701D02*
X0009702Y0164950D01*
X0007450Y0164950D01*
X0141014Y0017200D02*
X0138514Y0014700D01*
X0131014Y0014700D01*
X0130964Y0009154D02*
X0130964Y0005401D01*
X0131714Y0004650D01*
X0133216Y0004650D01*
X0133966Y0005401D01*
X0133966Y0009154D01*
X0135568Y0008403D02*
X0135568Y0007653D01*
X0136318Y0006902D01*
X0137820Y0006902D01*
X0138570Y0006151D01*
X0138570Y0005401D01*
X0137820Y0004650D01*
X0136318Y0004650D01*
X0135568Y0005401D01*
X0135568Y0008403D02*
X0136318Y0009154D01*
X0137820Y0009154D01*
X0138570Y0008403D01*
X0140172Y0009154D02*
X0140172Y0004650D01*
X0143174Y0004650D01*
X0144776Y0004650D02*
X0144776Y0009154D01*
X0147027Y0009154D01*
X0147778Y0008403D01*
X0147778Y0006902D01*
X0147027Y0006151D01*
X0144776Y0006151D01*
X0146277Y0006151D02*
X0147778Y0004650D01*
X0143174Y0009154D02*
X0140172Y0009154D01*
X0140172Y0006902D02*
X0141673Y0006902D01*
X0141014Y0014700D02*
X0151014Y0014700D01*
X0168464Y0009154D02*
X0168464Y0004650D01*
X0168464Y0006151D02*
X0170716Y0006151D01*
X0171466Y0006902D01*
X0171466Y0008403D01*
X0170716Y0009154D01*
X0168464Y0009154D01*
X0169965Y0006151D02*
X0171466Y0004650D01*
X0173068Y0004650D02*
X0176070Y0004650D01*
X0177672Y0005401D02*
X0178422Y0004650D01*
X0179924Y0004650D01*
X0180674Y0005401D01*
X0180674Y0006151D01*
X0179924Y0006902D01*
X0178422Y0006902D01*
X0177672Y0007653D01*
X0177672Y0008403D01*
X0178422Y0009154D01*
X0179924Y0009154D01*
X0180674Y0008403D01*
X0182276Y0009154D02*
X0182276Y0004650D01*
X0185278Y0004650D01*
X0183777Y0006902D02*
X0182276Y0006902D01*
X0182276Y0009154D02*
X0185278Y0009154D01*
X0186879Y0009154D02*
X0189882Y0009154D01*
X0188381Y0009154D02*
X0188381Y0004650D01*
X0191014Y0014700D02*
X0181014Y0014700D01*
X0178514Y0014700D02*
X0181014Y0017200D01*
X0178514Y0014700D02*
X0171014Y0014700D01*
X0173068Y0009154D02*
X0173068Y0004650D01*
X0173068Y0006902D02*
X0174569Y0006902D01*
X0176070Y0009154D02*
X0173068Y0009154D01*
D16*
X0168514Y0009700D02*
X0193514Y0009700D01*
X0196014Y0012200D01*
X0196014Y0017200D01*
X0193514Y0019700D01*
X0168514Y0019700D01*
X0166014Y0017200D01*
X0166014Y0012200D01*
X0168514Y0009700D01*
X0156014Y0012200D02*
X0156014Y0017200D01*
X0153514Y0019700D01*
X0128514Y0019700D01*
X0126014Y0017200D01*
X0126014Y0012200D01*
X0128514Y0009700D01*
X0153514Y0009700D01*
X0156014Y0012200D01*
X0138014Y0032200D02*
X0138014Y0033200D01*
X0138014Y0032200D02*
X0114014Y0032200D01*
X0114014Y0033200D01*
X0098014Y0073200D02*
X0097985Y0073029D01*
X0097952Y0072859D01*
X0097916Y0072690D01*
X0097875Y0072522D01*
X0097829Y0072355D01*
X0097780Y0072189D01*
X0097727Y0072024D01*
X0097670Y0071861D01*
X0097609Y0071699D01*
X0097544Y0071538D01*
X0097475Y0071380D01*
X0097402Y0071223D01*
X0097325Y0071068D01*
X0097245Y0070914D01*
X0097160Y0070763D01*
X0097073Y0070614D01*
X0096981Y0070467D01*
X0096886Y0070322D01*
X0096788Y0070180D01*
X0096686Y0070040D01*
X0096580Y0069903D01*
X0096472Y0069768D01*
X0096360Y0069636D01*
X0096245Y0069507D01*
X0096126Y0069381D01*
X0096005Y0069257D01*
X0095881Y0069137D01*
X0095754Y0069019D01*
X0095624Y0068905D01*
X0095491Y0068794D01*
X0095355Y0068686D01*
X0095217Y0068582D01*
X0095077Y0068481D01*
X0094934Y0068383D01*
X0094788Y0068289D01*
X0094641Y0068199D01*
X0094491Y0068112D01*
X0094339Y0068029D01*
X0094186Y0067950D01*
X0094030Y0067874D01*
X0093872Y0067802D01*
X0093713Y0067734D01*
X0093552Y0067670D01*
X0093390Y0067610D01*
X0093226Y0067554D01*
X0093061Y0067502D01*
X0092895Y0067454D01*
X0092728Y0067410D01*
X0092559Y0067371D01*
X0092390Y0067335D01*
X0092220Y0067303D01*
X0092049Y0067276D01*
X0091877Y0067253D01*
X0091705Y0067234D01*
X0091533Y0067219D01*
X0091360Y0067208D01*
X0091187Y0067202D01*
X0091014Y0067200D01*
X0090841Y0067202D01*
X0090668Y0067208D01*
X0090495Y0067219D01*
X0090323Y0067234D01*
X0090151Y0067253D01*
X0089979Y0067276D01*
X0089808Y0067303D01*
X0089638Y0067335D01*
X0089469Y0067371D01*
X0089300Y0067410D01*
X0089133Y0067454D01*
X0088967Y0067502D01*
X0088802Y0067554D01*
X0088638Y0067610D01*
X0088476Y0067670D01*
X0088315Y0067734D01*
X0088156Y0067802D01*
X0087998Y0067874D01*
X0087842Y0067950D01*
X0087689Y0068029D01*
X0087537Y0068112D01*
X0087387Y0068199D01*
X0087240Y0068289D01*
X0087094Y0068383D01*
X0086951Y0068481D01*
X0086811Y0068582D01*
X0086673Y0068686D01*
X0086537Y0068794D01*
X0086404Y0068905D01*
X0086274Y0069019D01*
X0086147Y0069137D01*
X0086023Y0069257D01*
X0085902Y0069381D01*
X0085783Y0069507D01*
X0085668Y0069636D01*
X0085556Y0069768D01*
X0085448Y0069903D01*
X0085342Y0070040D01*
X0085240Y0070180D01*
X0085142Y0070322D01*
X0085047Y0070467D01*
X0084955Y0070614D01*
X0084868Y0070763D01*
X0084783Y0070914D01*
X0084703Y0071068D01*
X0084626Y0071223D01*
X0084553Y0071380D01*
X0084484Y0071538D01*
X0084419Y0071699D01*
X0084358Y0071861D01*
X0084301Y0072024D01*
X0084248Y0072189D01*
X0084199Y0072355D01*
X0084153Y0072522D01*
X0084112Y0072690D01*
X0084076Y0072859D01*
X0084043Y0073029D01*
X0084014Y0073200D01*
X0084014Y0091200D02*
X0084043Y0091371D01*
X0084076Y0091541D01*
X0084112Y0091710D01*
X0084153Y0091878D01*
X0084199Y0092045D01*
X0084248Y0092211D01*
X0084301Y0092376D01*
X0084358Y0092539D01*
X0084419Y0092701D01*
X0084484Y0092862D01*
X0084553Y0093020D01*
X0084626Y0093177D01*
X0084703Y0093332D01*
X0084783Y0093486D01*
X0084868Y0093637D01*
X0084955Y0093786D01*
X0085047Y0093933D01*
X0085142Y0094078D01*
X0085240Y0094220D01*
X0085342Y0094360D01*
X0085448Y0094497D01*
X0085556Y0094632D01*
X0085668Y0094764D01*
X0085783Y0094893D01*
X0085902Y0095019D01*
X0086023Y0095143D01*
X0086147Y0095263D01*
X0086274Y0095381D01*
X0086404Y0095495D01*
X0086537Y0095606D01*
X0086673Y0095714D01*
X0086811Y0095818D01*
X0086951Y0095919D01*
X0087094Y0096017D01*
X0087240Y0096111D01*
X0087387Y0096201D01*
X0087537Y0096288D01*
X0087689Y0096371D01*
X0087842Y0096450D01*
X0087998Y0096526D01*
X0088156Y0096598D01*
X0088315Y0096666D01*
X0088476Y0096730D01*
X0088638Y0096790D01*
X0088802Y0096846D01*
X0088967Y0096898D01*
X0089133Y0096946D01*
X0089300Y0096990D01*
X0089469Y0097029D01*
X0089638Y0097065D01*
X0089808Y0097097D01*
X0089979Y0097124D01*
X0090151Y0097147D01*
X0090323Y0097166D01*
X0090495Y0097181D01*
X0090668Y0097192D01*
X0090841Y0097198D01*
X0091014Y0097200D01*
X0091187Y0097198D01*
X0091360Y0097192D01*
X0091533Y0097181D01*
X0091705Y0097166D01*
X0091877Y0097147D01*
X0092049Y0097124D01*
X0092220Y0097097D01*
X0092390Y0097065D01*
X0092559Y0097029D01*
X0092728Y0096990D01*
X0092895Y0096946D01*
X0093061Y0096898D01*
X0093226Y0096846D01*
X0093390Y0096790D01*
X0093552Y0096730D01*
X0093713Y0096666D01*
X0093872Y0096598D01*
X0094030Y0096526D01*
X0094186Y0096450D01*
X0094339Y0096371D01*
X0094491Y0096288D01*
X0094641Y0096201D01*
X0094788Y0096111D01*
X0094934Y0096017D01*
X0095077Y0095919D01*
X0095217Y0095818D01*
X0095355Y0095714D01*
X0095491Y0095606D01*
X0095624Y0095495D01*
X0095754Y0095381D01*
X0095881Y0095263D01*
X0096005Y0095143D01*
X0096126Y0095019D01*
X0096245Y0094893D01*
X0096360Y0094764D01*
X0096472Y0094632D01*
X0096580Y0094497D01*
X0096686Y0094360D01*
X0096788Y0094220D01*
X0096886Y0094078D01*
X0096981Y0093933D01*
X0097073Y0093786D01*
X0097160Y0093637D01*
X0097245Y0093486D01*
X0097325Y0093332D01*
X0097402Y0093177D01*
X0097475Y0093020D01*
X0097544Y0092862D01*
X0097609Y0092701D01*
X0097670Y0092539D01*
X0097727Y0092376D01*
X0097780Y0092211D01*
X0097829Y0092045D01*
X0097875Y0091878D01*
X0097916Y0091710D01*
X0097952Y0091541D01*
X0097985Y0091371D01*
X0098014Y0091200D01*
X0084014Y0091200D02*
X0083834Y0089405D01*
X0083694Y0087607D01*
X0083594Y0085806D01*
X0083534Y0084004D01*
X0083514Y0082200D01*
X0083534Y0080396D01*
X0083594Y0078594D01*
X0083694Y0076793D01*
X0083834Y0074995D01*
X0084014Y0073200D01*
X0098014Y0073200D02*
X0098195Y0074995D01*
X0098335Y0076793D01*
X0098436Y0078594D01*
X0098496Y0080396D01*
X0098516Y0082200D01*
X0098496Y0084004D01*
X0098436Y0085806D01*
X0098335Y0087607D01*
X0098195Y0089405D01*
X0098014Y0091200D01*
X0114014Y0171200D02*
X0114014Y0172200D01*
X0121014Y0172200D01*
X0121016Y0172060D01*
X0121022Y0171920D01*
X0121032Y0171780D01*
X0121045Y0171640D01*
X0121063Y0171501D01*
X0121085Y0171362D01*
X0121110Y0171225D01*
X0121139Y0171087D01*
X0121172Y0170951D01*
X0121209Y0170816D01*
X0121250Y0170682D01*
X0121295Y0170549D01*
X0121343Y0170417D01*
X0121395Y0170287D01*
X0121450Y0170158D01*
X0121509Y0170031D01*
X0121572Y0169905D01*
X0121638Y0169781D01*
X0121707Y0169660D01*
X0121780Y0169540D01*
X0121857Y0169422D01*
X0121936Y0169307D01*
X0122019Y0169193D01*
X0122105Y0169083D01*
X0122194Y0168974D01*
X0122286Y0168868D01*
X0122381Y0168765D01*
X0122478Y0168664D01*
X0122579Y0168567D01*
X0122682Y0168472D01*
X0122788Y0168380D01*
X0122897Y0168291D01*
X0123007Y0168205D01*
X0123121Y0168122D01*
X0123236Y0168043D01*
X0123354Y0167966D01*
X0123474Y0167893D01*
X0123595Y0167824D01*
X0123719Y0167758D01*
X0123845Y0167695D01*
X0123972Y0167636D01*
X0124101Y0167581D01*
X0124231Y0167529D01*
X0124363Y0167481D01*
X0124496Y0167436D01*
X0124630Y0167395D01*
X0124765Y0167358D01*
X0124901Y0167325D01*
X0125039Y0167296D01*
X0125176Y0167271D01*
X0125315Y0167249D01*
X0125454Y0167231D01*
X0125594Y0167218D01*
X0125734Y0167208D01*
X0125874Y0167202D01*
X0126014Y0167200D01*
X0126154Y0167202D01*
X0126294Y0167208D01*
X0126434Y0167218D01*
X0126574Y0167231D01*
X0126713Y0167249D01*
X0126852Y0167271D01*
X0126989Y0167296D01*
X0127127Y0167325D01*
X0127263Y0167358D01*
X0127398Y0167395D01*
X0127532Y0167436D01*
X0127665Y0167481D01*
X0127797Y0167529D01*
X0127927Y0167581D01*
X0128056Y0167636D01*
X0128183Y0167695D01*
X0128309Y0167758D01*
X0128433Y0167824D01*
X0128554Y0167893D01*
X0128674Y0167966D01*
X0128792Y0168043D01*
X0128907Y0168122D01*
X0129021Y0168205D01*
X0129131Y0168291D01*
X0129240Y0168380D01*
X0129346Y0168472D01*
X0129449Y0168567D01*
X0129550Y0168664D01*
X0129647Y0168765D01*
X0129742Y0168868D01*
X0129834Y0168974D01*
X0129923Y0169083D01*
X0130009Y0169193D01*
X0130092Y0169307D01*
X0130171Y0169422D01*
X0130248Y0169540D01*
X0130321Y0169660D01*
X0130390Y0169781D01*
X0130456Y0169905D01*
X0130519Y0170031D01*
X0130578Y0170158D01*
X0130633Y0170287D01*
X0130685Y0170417D01*
X0130733Y0170549D01*
X0130778Y0170682D01*
X0130819Y0170816D01*
X0130856Y0170951D01*
X0130889Y0171087D01*
X0130918Y0171225D01*
X0130943Y0171362D01*
X0130965Y0171501D01*
X0130983Y0171640D01*
X0130996Y0171780D01*
X0131006Y0171920D01*
X0131012Y0172060D01*
X0131014Y0172200D01*
X0138014Y0172200D01*
X0138014Y0171200D01*
X0193514Y0139700D02*
X0193514Y0134700D01*
X0196014Y0132200D01*
X0193514Y0129700D01*
X0193514Y0124700D01*
X0196014Y0122200D01*
X0193514Y0119700D01*
X0193514Y0114700D01*
X0196014Y0112200D01*
X0193514Y0109700D01*
X0193514Y0104700D01*
X0196014Y0102200D01*
X0193514Y0099700D01*
X0193514Y0094700D01*
X0196014Y0092200D01*
X0193514Y0089700D01*
X0193514Y0084700D01*
X0196014Y0082200D01*
X0193514Y0079700D01*
X0193514Y0074700D01*
X0196014Y0072200D01*
X0193514Y0069700D01*
X0193514Y0064700D01*
X0196014Y0062200D01*
X0201014Y0062200D01*
X0203514Y0064700D01*
X0203514Y0069700D01*
X0201014Y0072200D01*
X0203514Y0074700D01*
X0203514Y0079700D01*
X0201014Y0082200D01*
X0203514Y0084700D01*
X0203514Y0089700D01*
X0201014Y0092200D01*
X0203514Y0094700D01*
X0203514Y0099700D01*
X0201014Y0102200D01*
X0203514Y0104700D01*
X0203514Y0109700D01*
X0201014Y0112200D01*
X0203514Y0114700D01*
X0203514Y0119700D01*
X0201014Y0122200D01*
X0203514Y0124700D01*
X0203514Y0129700D01*
X0201014Y0132200D01*
X0203514Y0134700D01*
X0203514Y0139700D01*
X0201014Y0142200D01*
X0196014Y0142200D01*
X0193514Y0139700D01*
X0061014Y0179700D02*
X0061014Y0184700D01*
X0058514Y0187200D01*
X0053514Y0187200D01*
X0051014Y0184700D01*
X0048514Y0187200D01*
X0043514Y0187200D01*
X0041014Y0184700D01*
X0038514Y0187200D01*
X0033514Y0187200D01*
X0031014Y0184700D01*
X0028514Y0187200D01*
X0023514Y0187200D01*
X0021014Y0184700D01*
X0018514Y0187200D01*
X0013514Y0187200D01*
X0011014Y0184700D01*
X0011014Y0179700D01*
X0013514Y0177200D01*
X0018514Y0177200D01*
X0021014Y0179700D01*
X0023514Y0177200D01*
X0028514Y0177200D01*
X0031014Y0179700D01*
X0033514Y0177200D01*
X0038514Y0177200D01*
X0041014Y0179700D01*
X0043514Y0177200D01*
X0048514Y0177200D01*
X0051014Y0179700D01*
X0053514Y0177200D01*
X0058514Y0177200D01*
X0061014Y0179700D01*
X0016014Y0139700D02*
X0016014Y0134700D01*
X0013514Y0132200D01*
X0016014Y0129700D01*
X0016014Y0124700D01*
X0013514Y0122200D01*
X0016014Y0119700D01*
X0016014Y0114700D01*
X0013514Y0112200D01*
X0016014Y0109700D01*
X0016014Y0104700D01*
X0013514Y0102200D01*
X0016014Y0099700D01*
X0016014Y0094700D01*
X0013514Y0092200D01*
X0016014Y0089700D01*
X0016014Y0084700D01*
X0013514Y0082200D01*
X0016014Y0079700D01*
X0016014Y0074700D01*
X0013514Y0072200D01*
X0016014Y0069700D01*
X0016014Y0064700D01*
X0013514Y0062200D01*
X0008514Y0062200D01*
X0006014Y0064700D01*
X0006014Y0069700D01*
X0008514Y0072200D01*
X0006014Y0074700D01*
X0006014Y0079700D01*
X0008514Y0082200D01*
X0006014Y0084700D01*
X0006014Y0089700D01*
X0008514Y0092200D01*
X0006014Y0094700D01*
X0006014Y0099700D01*
X0008514Y0102200D01*
X0006014Y0104700D01*
X0006014Y0109700D01*
X0008514Y0112200D01*
X0006014Y0114700D01*
X0006014Y0119700D01*
X0008514Y0122200D01*
X0006014Y0124700D01*
X0006014Y0129700D01*
X0008514Y0132200D01*
X0006014Y0134700D01*
X0006014Y0139700D01*
X0008514Y0142200D01*
X0013514Y0142200D01*
X0016014Y0139700D01*
D17*
X0015466Y0189900D02*
X0015466Y0194504D01*
X0017768Y0194504D01*
X0018535Y0193737D01*
X0018535Y0192202D01*
X0017768Y0191435D01*
X0015466Y0191435D01*
X0020070Y0189900D02*
X0021604Y0189900D01*
X0020837Y0189900D02*
X0020837Y0194504D01*
X0020070Y0194504D02*
X0021604Y0194504D01*
X0023139Y0193737D02*
X0023139Y0190667D01*
X0023906Y0189900D01*
X0025441Y0189900D01*
X0026208Y0190667D01*
X0027743Y0189900D02*
X0027743Y0194504D01*
X0026208Y0193737D02*
X0025441Y0194504D01*
X0023906Y0194504D01*
X0023139Y0193737D01*
X0027743Y0191435D02*
X0030812Y0194504D01*
X0032347Y0194504D02*
X0033881Y0194504D01*
X0033114Y0194504D02*
X0033114Y0189900D01*
X0032347Y0189900D02*
X0033881Y0189900D01*
X0036951Y0189900D02*
X0036951Y0194504D01*
X0038485Y0194504D02*
X0035416Y0194504D01*
X0030812Y0189900D02*
X0028510Y0192202D01*
X0023905Y0033772D02*
X0024672Y0033004D01*
X0024672Y0030702D01*
X0020068Y0030702D01*
X0020068Y0033004D01*
X0020835Y0033772D01*
X0021603Y0033772D01*
X0022370Y0033004D01*
X0022370Y0030702D01*
X0023137Y0029168D02*
X0022370Y0028400D01*
X0022370Y0026866D01*
X0021603Y0026098D01*
X0020835Y0026098D01*
X0020068Y0026866D01*
X0020068Y0028400D01*
X0020835Y0029168D01*
X0023137Y0029168D02*
X0023905Y0029168D01*
X0024672Y0028400D01*
X0024672Y0026866D01*
X0023905Y0026098D01*
X0023905Y0024564D02*
X0020068Y0024564D01*
X0020068Y0021494D02*
X0023905Y0021494D01*
X0024672Y0022262D01*
X0024672Y0023796D01*
X0023905Y0024564D01*
X0022370Y0033004D02*
X0023137Y0033772D01*
X0023905Y0033772D01*
D18*
X0051014Y0058000D03*
X0051014Y0086400D03*
X0058514Y0128000D03*
X0058514Y0156400D03*
X0166014Y0161400D03*
X0166014Y0133000D03*
D19*
X0156814Y0187200D03*
X0185214Y0187200D03*
D20*
X0128314Y0161191D02*
X0128314Y0160457D01*
X0127947Y0160090D01*
X0126479Y0160090D01*
X0126112Y0160457D01*
X0126112Y0161191D01*
X0126479Y0161558D01*
X0127947Y0161558D02*
X0128314Y0161191D01*
X0128314Y0159351D02*
X0128314Y0158617D01*
X0128314Y0158984D02*
X0126112Y0158984D01*
X0126112Y0158617D02*
X0126112Y0159351D01*
X0126479Y0157875D02*
X0127213Y0157875D01*
X0127580Y0157508D01*
X0127580Y0156407D01*
X0128314Y0156407D02*
X0126112Y0156407D01*
X0126112Y0157508D01*
X0126479Y0157875D01*
X0123314Y0158247D02*
X0122947Y0157880D01*
X0122580Y0157880D01*
X0122213Y0158247D01*
X0122213Y0158981D01*
X0122580Y0159348D01*
X0122947Y0159348D01*
X0123314Y0158981D01*
X0123314Y0158247D01*
X0122213Y0158247D02*
X0121846Y0157880D01*
X0121479Y0157880D01*
X0121112Y0158247D01*
X0121112Y0158981D01*
X0121479Y0159348D01*
X0121846Y0159348D01*
X0122213Y0158981D01*
X0122213Y0160090D02*
X0122213Y0161191D01*
X0122580Y0161558D01*
X0122947Y0161558D01*
X0123314Y0161191D01*
X0123314Y0160090D01*
X0121112Y0160090D01*
X0121112Y0161191D01*
X0121479Y0161558D01*
X0121846Y0161558D01*
X0122213Y0161191D01*
X0121846Y0157138D02*
X0121479Y0157138D01*
X0121112Y0156771D01*
X0121112Y0156037D01*
X0121479Y0155670D01*
X0121846Y0157138D02*
X0123314Y0155670D01*
X0123314Y0157138D01*
X0123314Y0154928D02*
X0123314Y0153460D01*
X0123314Y0154194D02*
X0121112Y0154194D01*
X0121846Y0153460D01*
X0121112Y0152718D02*
X0121112Y0151250D01*
X0123314Y0151250D01*
X0122947Y0150509D02*
X0123314Y0150142D01*
X0123314Y0149408D01*
X0122947Y0149041D01*
X0121479Y0150509D01*
X0122947Y0150509D01*
X0122213Y0151250D02*
X0122213Y0151984D01*
X0121479Y0150509D02*
X0121112Y0150142D01*
X0121112Y0149408D01*
X0121479Y0149041D01*
X0122947Y0149041D01*
X0122947Y0148299D02*
X0123314Y0147932D01*
X0123314Y0147198D01*
X0122947Y0146831D01*
X0122213Y0146831D02*
X0121846Y0147565D01*
X0121846Y0147932D01*
X0122213Y0148299D01*
X0122947Y0148299D01*
X0122213Y0146831D02*
X0121112Y0146831D01*
X0121112Y0148299D01*
X0121479Y0146089D02*
X0121112Y0145722D01*
X0121112Y0144988D01*
X0121479Y0144621D01*
X0121112Y0143879D02*
X0123314Y0142411D01*
X0123314Y0141669D02*
X0121112Y0141669D01*
X0121846Y0140935D01*
X0121112Y0140201D01*
X0123314Y0140201D01*
X0123314Y0139459D02*
X0123314Y0137991D01*
X0121846Y0139459D01*
X0121479Y0139459D01*
X0121112Y0139092D01*
X0121112Y0138358D01*
X0121479Y0137991D01*
X0121479Y0137249D02*
X0121846Y0137249D01*
X0122213Y0136882D01*
X0122580Y0137249D01*
X0122947Y0137249D01*
X0123314Y0136882D01*
X0123314Y0136148D01*
X0122947Y0135781D01*
X0122947Y0135039D02*
X0123314Y0134672D01*
X0123314Y0133938D01*
X0122947Y0133571D01*
X0121479Y0133571D01*
X0121112Y0133938D01*
X0121112Y0134672D01*
X0121479Y0135039D01*
X0121479Y0135781D02*
X0121112Y0136148D01*
X0121112Y0136882D01*
X0121479Y0137249D01*
X0122213Y0136882D02*
X0122213Y0136515D01*
X0123314Y0132832D02*
X0123314Y0132098D01*
X0123314Y0132465D02*
X0121112Y0132465D01*
X0121112Y0132098D02*
X0121112Y0132832D01*
X0121479Y0131356D02*
X0121112Y0130989D01*
X0121112Y0129888D01*
X0123314Y0129888D01*
X0122580Y0129888D02*
X0122580Y0130989D01*
X0122213Y0131356D01*
X0121479Y0131356D01*
X0121112Y0142411D02*
X0123314Y0143879D01*
X0123314Y0144621D02*
X0121846Y0146089D01*
X0121479Y0146089D01*
X0123314Y0146089D02*
X0123314Y0144621D01*
D21*
X0069045Y0018027D03*
D22*
X0081628Y0077082D02*
X0082629Y0077082D01*
X0082879Y0077332D01*
X0082879Y0077833D01*
X0082629Y0078083D01*
X0082879Y0078555D02*
X0081377Y0078555D01*
X0081628Y0078083D02*
X0081377Y0077833D01*
X0081377Y0077332D01*
X0081628Y0077082D01*
X0082879Y0078555D02*
X0082879Y0079556D01*
X0082879Y0080029D02*
X0081377Y0080029D01*
X0082128Y0080279D02*
X0082879Y0081030D01*
X0082378Y0080029D02*
X0081377Y0081030D01*
X0081628Y0087105D02*
X0081878Y0087105D01*
X0082128Y0087355D01*
X0082128Y0087856D01*
X0082378Y0088106D01*
X0082629Y0088106D01*
X0082879Y0087856D01*
X0082879Y0087355D01*
X0082629Y0087105D01*
X0082378Y0087105D01*
X0082128Y0087355D01*
X0082128Y0087856D02*
X0081878Y0088106D01*
X0081628Y0088106D01*
X0081377Y0087856D01*
X0081377Y0087355D01*
X0081628Y0087105D01*
X0081377Y0088578D02*
X0081878Y0089079D01*
X0081377Y0089579D01*
X0082879Y0089579D01*
X0082879Y0090052D02*
X0081377Y0090052D01*
X0082128Y0090052D02*
X0082128Y0091052D01*
X0081878Y0091525D02*
X0081878Y0092526D01*
X0082879Y0091525D01*
X0082879Y0092526D01*
X0082879Y0091052D02*
X0081377Y0091052D01*
X0081377Y0088578D02*
X0082879Y0088578D01*
M02*
